<svg width="60" height="60" viewBox="0 0 60 60" fill="none" xmlns="http://www.w3.org/2000/svg">
<path d="M1.78125 30C1.78125 42.2812 9.65625 52.6875 20.5312 56.5312V3.46875C9.65625 7.3125 1.78125 17.7187 1.78125 30Z" fill="#428BC1"/>
<path d="M58.0312 30C58.0312 17.7187 50.25 7.3125 39.2812 3.46875V56.5312C50.25 52.6875 58.0312 42.2812 58.0312 30" fill="#ED4C5C"/>
<path d="M20.5312 56.5312C23.4375 57.5625 26.625 58.125 29.9062 58.125C33.1875 58.125 36.375 57.5625 39.2813 56.5312V3.46875C36.375 2.4375 33.2812 1.875 29.9062 1.875C26.5313 1.875 23.4375 2.4375 20.5312 3.46875V56.5312" fill="white"/>
</svg>
