<svg width="82" height="71" viewBox="0 0 82 71" fill="none" xmlns="http://www.w3.org/2000/svg">
<path d="M59.3784 0.8L59.3783 0.8C53.9676 0.80269 48.7519 2.81593 44.7493 6.44694C43.3069 7.74636 42.0461 9.23235 41 10.865C39.9535 9.23207 38.6927 7.74542 37.2507 6.4448C33.2472 2.81528 28.032 0.802931 22.6217 0.8H22.6216C10.5895 0.8 0.8 10.562 0.8 22.5625C0.8 30.6418 3.32499 37.0219 9.21806 43.878C13.4943 48.8544 21.0329 55.1293 27.6052 60.233C34.1816 65.34 39.8062 69.2864 40.2647 69.6075C40.4797 69.7593 40.7366 69.841 41 69.841C41.2633 69.841 41.5203 69.7593 41.7353 69.6075C42.1938 69.2864 47.8184 65.34 54.3951 60.233C60.9676 55.1293 68.5068 48.8544 72.7841 43.878L72.6324 43.7477L72.7841 43.878C78.675 37.0219 81.2 30.6418 81.2 22.5625C81.2 10.562 71.4105 0.8 59.3784 0.8ZM35.5297 8.33948L35.5298 8.33961C37.3141 9.94881 38.7803 11.8771 39.8524 14.0247L39.8526 14.025C40.0781 14.4749 40.5512 14.6852 41 14.6852C41.4488 14.6852 41.9219 14.4749 42.1474 14.025L42.1476 14.0247C43.2192 11.8774 44.6854 9.9498 46.4701 8.34184L46.4706 8.34134C50.0016 5.13621 54.6036 3.35875 59.3785 3.35625C69.9972 3.35631 78.6378 11.9721 78.6378 22.5625C78.6378 29.9733 76.3134 35.8451 70.8397 42.2157C67.0753 46.5938 60.5056 52.1577 54.4092 56.9582C48.4402 61.6584 42.9386 65.6162 41 66.9947C39.0614 65.6162 33.5598 61.6584 27.591 56.9582C21.4949 52.1577 14.9257 46.5938 11.1625 42.2157C5.68664 35.8451 3.36216 29.9734 3.36216 22.5625C3.36216 11.972 12.0029 3.35625 22.6216 3.35625C27.3869 3.35625 31.9727 5.12521 35.5297 8.33948Z" fill="#3D3D3D" stroke="black" stroke-width="0.4"/>
</svg>
