<svg width="20" height="20" viewBox="0 0 20 20" fill="none" xmlns="http://www.w3.org/2000/svg">
<path d="M9.99959 10.7272C7.43609 10.7272 5.35059 8.64169 5.35059 6.07819C5.35059 3.51469 7.43609 1.42969 9.99959 1.42969C12.5631 1.42969 14.6486 3.51519 14.6486 6.07869C14.6486 8.64219 12.5631 10.7272 9.99959 10.7272V10.7272ZM9.99959 1.87119C7.68009 1.87119 5.79259 3.75869 5.79259 6.07819C5.79259 8.39769 7.68009 10.2852 9.99959 10.2852C12.3191 10.2852 14.2066 8.39769 14.2066 6.07819C14.2066 3.75869 12.3191 1.87119 9.99959 1.87119V1.87119Z" fill="#3D3D3D"/>
<path d="M18.4142 18.5704H1.58623C1.52762 18.5704 1.47141 18.5471 1.42996 18.5057C1.38852 18.4642 1.36523 18.408 1.36523 18.3494V15.4959C1.56673 11.8714 4.83223 11.6529 4.86523 11.6509L15.1217 11.6504C15.1667 11.6524 18.4332 11.8714 18.6342 15.4834L18.6347 18.3494C18.6349 18.3784 18.6293 18.4072 18.6182 18.434C18.6072 18.4608 18.591 18.4852 18.5705 18.5058C18.55 18.5263 18.5256 18.5426 18.4988 18.5537C18.472 18.5648 18.4433 18.5705 18.4142 18.5704V18.5704ZM1.80723 18.1289H18.1932V15.4959C18.0142 12.2869 15.2287 12.0984 15.1102 12.0919L4.87773 12.0924C4.77173 12.0989 1.98623 12.2974 1.80723 15.5079V18.1289V18.1289Z" fill="#3D3D3D"/>
</svg>
