<svg width="80" height="75" viewBox="0 0 80 75" fill="none" xmlns="http://www.w3.org/2000/svg">
<path d="M21.2523 22.7932C21.2523 32.4981 29.6708 40.377 39.9983 40.377C50.3259 40.377 58.7444 32.5 58.7444 22.7951C58.7444 13.0901 50.326 5.21133 39.9983 5.21133C29.6708 5.21133 21.2523 13.0882 21.2523 22.7932ZM23.3203 22.7932C23.3203 14.1869 30.7939 7.16695 39.9983 7.16695C49.2028 7.16695 56.6764 14.1869 56.6764 22.7932C56.6764 31.3995 49.2028 38.4195 39.9983 38.4195C30.7939 38.4195 23.3203 31.3995 23.3203 22.7932Z" fill="black" stroke="black" stroke-width="0.3"/>
<path d="M74.6888 68.8091L74.6868 58.0627H74.6871L74.6866 58.0538C74.2811 51.2226 70.778 47.5887 67.3512 45.6684C63.933 43.753 60.5951 43.5433 60.4931 43.5391L60.4931 43.539L60.4868 43.539L19.4609 43.5408V43.5406L19.4524 43.5411C19.3768 43.5454 16.0518 43.7543 12.6401 45.6754C9.21995 47.6012 5.71767 51.2463 5.3112 58.1007L5.31094 58.1007V58.1096V68.8102C5.31094 69.073 5.42244 69.3229 5.61719 69.5057L5.61733 69.5058L74.6888 68.8091ZM74.6888 68.8091L74.6888 68.8102M74.6888 68.8091C74.6888 68.8095 74.6888 68.8098 74.6888 68.8102M74.6888 68.8102C74.6896 68.94 74.6628 69.0686 74.61 69.1881M74.6888 68.8102L74.61 69.1881M74.61 69.1881L74.4728 69.1275L74.6102 69.1876C74.6102 69.1878 74.6101 69.1879 74.61 69.1881ZM74.61 69.1881C74.5577 69.3074 74.4811 69.4153 74.3849 69.5059L74.3846 69.5062C74.2883 69.5965 74.1742 69.6678 74.0495 69.7162C73.9248 69.7646 73.7914 69.7894 73.6563 69.789L73.6568 69.639L74.61 69.1881ZM72.6228 58.114V67.8333H7.37894V58.1591C7.7348 52.1982 10.6657 49.0462 13.5546 47.3747C16.4342 45.7087 19.2801 45.5104 19.5153 45.4965L60.4369 45.4946C60.6907 45.508 63.5523 45.6956 66.4414 47.3537C69.3362 49.015 72.267 52.1562 72.6228 58.114Z" fill="#3D3D3D" stroke="black" stroke-width="0.3"/>
</svg>
