<svg width="80" height="75" viewBox="0 0 80 75" fill="none" xmlns="http://www.w3.org/2000/svg">
<path d="M21.1523 22.7932C21.1523 32.5594 29.6217 40.477 39.9983 40.477C50.375 40.477 58.8444 32.5613 58.8444 22.7951C58.8444 13.0289 50.375 5.11133 39.9983 5.11133C29.6218 5.11133 21.1523 13.027 21.1523 22.7932ZM23.4203 22.7932C23.4203 14.2481 30.843 7.26695 39.9983 7.26695C49.1538 7.26695 56.5764 14.2481 56.5764 22.7932C56.5764 31.3383 49.1538 38.3195 39.9983 38.3195C30.843 38.3195 23.4203 31.3383 23.4203 22.7932Z" fill="black" stroke="black" stroke-width="0.5"/>
<path d="M5.54898 69.5788L5.54874 69.5786C5.33467 69.3776 5.21094 69.1017 5.21094 68.8102V58.1096V58.1022L5.21138 58.0948C5.62016 51.2014 9.14595 47.5281 12.591 45.5882C16.0221 43.6563 19.3648 43.4459 19.4468 43.4412L19.4538 43.4408L19.4609 43.4408L60.4868 43.439L60.4972 43.439L60.4972 43.4392C60.6073 43.4438 63.9627 43.655 67.4 45.5812C70.8518 47.5155 74.3786 51.1775 74.7864 58.0479L74.7868 58.0553V58.0627L74.7888 68.8084C74.7888 68.8087 74.7888 68.8091 74.7888 68.8095V68.8102L74.5388 68.8102C74.5396 68.919 74.5172 69.027 74.4728 69.1275L5.54898 69.5788ZM5.54898 69.5788C5.76264 69.7789 6.04917 69.889 6.34494 69.889H73.656L5.54898 69.5788ZM72.5228 58.117V67.7333H7.47894V58.162C7.83337 52.2405 10.7418 49.1176 13.6046 47.4613C16.4531 45.8132 19.2696 45.6114 19.5183 45.5965L60.4343 45.5946C60.698 45.6088 63.5319 45.7992 66.3916 47.4404C69.2602 49.0867 72.1684 52.1985 72.5228 58.117Z" fill="#3D3D3D" stroke="black" stroke-width="0.5"/>
</svg>
