<svg width="37" height="32" viewBox="0 0 37 32" fill="none" xmlns="http://www.w3.org/2000/svg">
<g clip-path="url(#clip0)">
<path d="M27 0C24.5204 0.00123635 22.1302 0.926429 20.296 2.595C19.5988 3.22479 18.9942 3.94996 18.5 4.749C18.0056 3.94985 17.401 3.22438 16.704 2.594C14.8694 0.926125 12.4794 0.00134699 10 0C4.486 0 0 4.486 0 10C0 13.722 1.158 16.66 3.871 19.825C7.813 24.425 17.79 31.445 18.213 31.742C18.2969 31.8015 18.3972 31.8335 18.5 31.8335C18.6028 31.8335 18.7031 31.8015 18.787 31.742C19.21 31.445 29.187 24.425 33.13 19.825C35.842 16.66 37 13.722 37 10C37 4.486 32.514 0 27 0ZM32.371 19.175C28.876 23.251 20.191 29.516 18.5 30.72C16.809 29.516 8.124 23.251 4.63 19.175C2.085 16.206 1 13.462 1 10C1 5.037 5.038 1 10 1C12.227 1 14.37 1.829 16.032 3.335C16.8658 4.08905 17.551 4.99263 18.052 5.999C18.222 6.339 18.778 6.339 18.948 5.999C19.4488 4.99279 20.134 4.08949 20.968 3.336C22.6181 1.83406 24.7687 1.00117 27 1C31.962 1 36 5.037 36 10C36 13.462 34.915 16.206 32.371 19.175Z" fill="#3D3D3D"/>
</g>
<defs>
<clipPath id="clip0">
<rect width="37" height="32" fill="white"/>
</clipPath>
</defs>
</svg>
