<svg width="305" height="58" viewBox="0 0 305 58" fill="none" xmlns="http://www.w3.org/2000/svg">
<path d="M26.5032 6.574C29.4032 6.574 32.0712 8.662 32.0712 13.824V44.854L9.6252 6.4H0.693203V6.574H4.3472V39.576C4.3472 44.738 2.7812 46.826 0.693203 46.826V47H8.8132V46.826H8.5232C6.4932 46.826 4.5792 44.738 4.5792 39.576V6.98L28.2432 47H32.3032V13.824C32.3032 8.662 33.8692 6.574 35.9572 6.574V6.4H26.5032C22.7332 6.4 20.1232 8.43 20.1232 12.026C20.1232 14.926 22.1532 17.014 24.9372 17.014C27.6632 17.014 29.6352 15.1 29.6352 12.432C29.6352 9.3 26.9672 8.488 26.9672 8.488V8.604C26.9672 8.604 29.5192 9.474 29.5192 12.432C29.5192 15.042 27.6052 16.898 24.9372 16.898C22.2112 16.898 20.2392 14.868 20.2392 12.026C20.2392 8.488 22.7912 6.574 26.5032 6.574ZM52.3309 45.144C48.4449 45.144 46.9369 43.23 46.9369 43.23V43.346C46.9369 43.346 48.3869 45.376 52.6789 45.376C59.5809 45.376 64.7429 39.17 64.7429 31.456C64.7429 22.988 59.0589 16.956 51.3449 16.956C43.8629 16.956 37.6569 23.858 37.6569 32.384C37.6569 40.852 44.3849 47.522 52.0989 47.522C60.9149 47.522 68.9769 41.084 68.9769 29.02C68.9769 18.464 62.1909 10.982 51.8089 10.982C42.8189 10.982 35.8589 17.13 35.8589 25.714C35.8589 31.746 39.4549 35.922 45.3709 35.922C50.7069 35.922 54.4189 32.21 54.4189 26.874C54.4189 20.958 50.2429 19.856 50.2429 19.856V19.972C50.2429 19.972 54.3029 20.958 54.3029 26.874C54.3029 32.094 50.7069 35.806 45.3709 35.806C39.5129 35.806 35.9749 31.688 35.9749 25.714C35.9749 17.188 42.8769 11.098 51.8089 11.098C62.1329 11.098 68.8609 18.58 68.8609 29.02C68.8609 41.026 61.0309 47.058 52.8529 47.058C46.6469 47.058 42.4709 40.562 42.4709 32.094C42.4709 23.568 45.3129 17.188 51.3449 17.188C57.0869 17.188 59.9289 23.278 59.9289 31.746C59.9289 39.344 57.6089 45.202 52.3309 45.144ZM85.2654 17.768C90.0214 17.768 90.8334 20.668 89.5574 24.09L82.4234 43.52L72.3894 17.768H76.2174V17.594H64.4434V17.768H67.6914L79.2334 47H81.3794L89.7894 24.148C90.8914 20.726 92.3994 17.768 95.1254 17.768H95.3574V17.594H85.2654C75.8694 17.594 70.7074 23.568 70.7074 30.76C70.7074 39.576 76.7974 43.81 82.5974 43.81C88.7454 43.81 92.3994 39.634 92.3994 35.11C92.3994 30.644 89.3254 27.744 85.7874 27.744C79.7554 27.744 79.4074 32.906 79.4074 33.312H79.5234C79.5234 32.906 79.8134 27.86 85.7874 27.86C89.2674 27.86 92.2834 30.702 92.2834 35.11C92.2834 39.576 88.6874 43.694 82.5974 43.694C76.8554 43.694 70.8234 39.518 70.8234 30.76C70.8234 23.626 75.8694 17.768 85.2654 17.768ZM111.344 40.04C111.344 43.172 108.85 45.956 104.964 45.956C101.542 45.956 99.2221 43.694 99.2221 40.156C99.2221 31.92 108.096 32.674 111.344 27.338V40.04ZM122.364 21.886C122.364 32.094 115.346 37.604 107.516 37.604C100.15 37.604 95.4521 33.312 95.4521 26.758C95.4521 21.132 99.6861 17.652 104.384 17.652C109.082 17.652 111.576 20.03 111.576 23.916C111.576 35.052 94.5241 29.6 94.5241 40.562C94.5241 45.086 98.1781 47.58 102.296 47.58C106.936 47.58 110.242 44.564 111.402 42.012C111.692 45.84 113.258 47.58 116.274 47.58C119.638 47.58 121.03 44.622 121.146 42.94H120.972C120.798 44.564 119.696 45.666 118.246 45.666C116.912 45.666 115.81 44.796 115.81 42.94V27.512C115.81 20.784 112.62 16.782 105.892 16.782C99.8601 16.782 95.3361 21.074 95.3361 26.758C95.3361 33.37 100.092 37.72 107.516 37.72C115.404 37.72 122.48 32.152 122.48 21.886C122.48 13.012 116.042 7.27 107.458 7.27C97.3661 7.27 94.5821 14.23 94.5821 14.23H94.6981C94.6981 14.23 97.4241 7.386 107.458 7.386C115.984 7.386 122.364 13.07 122.364 21.886ZM146.06 6.574H153.02C159.864 6.574 162.938 11.62 162.938 17.246C162.938 23.046 159.864 28.034 153.6 28.034C149.714 28.034 147.22 26.352 147.22 23.278C147.22 20.9 148.67 19.392 150.816 19.392C152.846 19.392 154.238 20.726 154.238 22.698C154.238 25.018 152.382 25.54 152.382 25.54V25.656C152.382 25.656 154.354 25.134 154.354 22.698C154.354 20.668 152.904 19.276 150.816 19.276C148.612 19.276 147.104 20.842 147.104 23.278C147.104 26.41 149.714 28.208 153.716 28.208C161.488 28.208 167.984 23.22 167.984 17.072C167.984 10.982 162.764 6.4 154.296 6.4H137.65V6.574H141.304V46.826H137.65V47H149.656V46.826H146.06V6.574ZM192.718 56.802C183.786 56.802 178.102 51.234 178.102 43.694C178.102 38.3 181.872 33.66 186.918 33.66C190.804 33.66 193.298 35.806 193.298 39.286C193.298 42.998 190.282 46.246 184.54 46.246C178.856 46.246 175.724 43.288 175.724 39.46C175.724 30.064 192.776 34.704 192.776 24.438C192.776 19.914 188.6 16.84 182.742 16.84C175.028 16.84 169.46 23.858 169.46 32.326C169.46 40.794 175.144 47.58 182.916 47.58C190.224 47.58 193.414 43.056 193.414 39.286C193.414 35.748 190.862 33.544 186.918 33.544C181.814 33.544 177.986 38.242 177.986 43.694C177.986 51.292 183.728 56.918 192.718 56.918C201.766 56.918 208.842 50.828 208.842 41.78C208.842 30.702 199.098 27.628 194.922 27.628V27.744C199.04 27.744 208.726 30.76 208.726 41.78C208.726 50.77 201.592 56.802 192.718 56.802ZM182.742 17.014C186.164 17.014 188.078 20.204 188.078 24.496C188.078 33.254 176.478 32.326 174.854 38.358C174.448 36.618 174.274 34.878 174.274 32.616C174.274 24.148 177.29 17.014 182.742 17.014ZM204.418 25.366C210.334 23.568 214.394 18.812 214.394 12.2C214.394 4.776 209.58 0.193998 202.968 0.193998C197.574 0.193998 193.398 4.196 193.398 9.474C193.398 13.998 196.704 17.072 201.054 17.072C204.94 17.072 207.666 14.636 207.666 10.634C207.666 8.082 206.042 5.008 202.62 5.008C199.604 5.008 197.864 7.386 197.864 11.446V41.142C197.864 45.202 199.488 47.58 202.504 47.58C205.926 47.58 207.376 44.622 207.492 42.94H207.318C207.202 44.564 206.042 45.666 204.766 45.666C203.432 45.666 202.272 44.796 202.272 42.94V9.648C202.272 7.792 203.548 6.922 204.882 6.922C206.158 6.922 207.55 8.198 207.55 10.634C207.55 14.578 204.94 16.956 201.054 16.956C196.704 16.956 193.514 13.94 193.514 9.474C193.514 4.254 197.632 0.309996 202.968 0.309996C209.522 0.309996 214.278 4.834 214.278 12.2C214.278 18.754 210.334 23.452 204.418 25.25V25.366ZM218.408 25.366C224.324 23.568 228.384 18.812 228.384 12.2C228.384 4.776 223.57 0.193998 216.958 0.193998C211.564 0.193998 207.388 4.196 207.388 9.474C207.388 13.998 210.694 17.072 215.044 17.072C218.93 17.072 221.656 14.636 221.656 10.634C221.656 8.082 220.032 5.008 216.61 5.008C213.594 5.008 211.854 7.386 211.854 11.446V41.142C211.854 45.202 213.478 47.58 216.494 47.58C219.916 47.58 221.366 44.622 221.482 42.94H221.308C221.192 44.564 220.032 45.666 218.756 45.666C217.422 45.666 216.262 44.796 216.262 42.94V9.648C216.262 7.792 217.538 6.922 218.872 6.922C220.148 6.922 221.54 8.198 221.54 10.634C221.54 14.578 218.93 16.956 215.044 16.956C210.694 16.956 207.504 13.94 207.504 9.474C207.504 4.254 211.622 0.309996 216.958 0.309996C223.512 0.309996 228.268 4.834 228.268 12.2C228.268 18.754 224.324 23.452 218.408 25.25V25.366ZM229.382 17.594C223.93 17.594 220.334 14.752 220.334 10.112C220.334 6.516 222.886 3.442 226.714 3.442C229.904 3.442 231.18 5.414 231.18 6.342C231.18 6.516 231.064 6.632 230.89 6.632C230.774 6.632 230.194 6.458 229.556 6.458C228.106 6.458 226.714 7.444 226.714 9.3C226.714 11.04 227.99 12.2 229.614 12.2C231.354 12.2 232.63 10.866 232.63 8.894C232.63 6.052 230.774 3.326 226.714 3.326C222.828 3.326 220.218 6.458 220.218 10.112C220.218 13.998 222.654 16.55 226.598 17.42V46.826H222.944V47H234.66V46.826H231.064V17.594H229.382ZM258.797 22.35C261.059 23.336 262.741 25.83 262.741 29.31C262.741 35.168 258.333 38.88 253.055 38.88C247.835 38.88 244.007 35.458 244.007 31.108H243.891C243.891 35.574 247.777 38.996 253.055 38.996C258.391 38.996 262.857 35.226 262.857 29.31C262.857 24.554 259.783 21.654 256.245 21.654C254.563 21.654 253.171 22.698 253.171 24.612C253.171 26.236 254.389 27.57 256.245 27.57C257.927 27.57 259.203 26.178 259.203 24.09C259.203 20.61 256.129 16.84 250.097 16.84C242.325 16.84 236.409 23.858 236.409 32.326C236.409 40.794 241.803 47.58 249.517 47.58C255.375 47.58 258.913 44.39 259.377 39.982H259.145C258.623 44.274 255.201 46.768 251.547 46.768C245.283 46.768 241.223 40.504 241.223 32.036C241.223 22.814 244.935 17.13 250.967 17.13C255.259 17.13 257.985 19.624 258.797 22.35ZM268.408 17.594C262.956 17.594 259.36 14.752 259.36 10.112C259.36 6.516 261.912 3.442 265.74 3.442C268.93 3.442 270.206 5.414 270.206 6.342C270.206 6.516 270.09 6.632 269.916 6.632C269.8 6.632 269.22 6.458 268.582 6.458C267.132 6.458 265.74 7.444 265.74 9.3C265.74 11.04 267.016 12.2 268.64 12.2C270.38 12.2 271.656 10.866 271.656 8.894C271.656 6.052 269.8 3.326 265.74 3.326C261.854 3.326 259.244 6.458 259.244 10.112C259.244 13.998 261.68 16.55 265.624 17.42V46.826H261.97V47H273.686V46.826H270.09V17.594H268.408ZM293.387 40.04C293.387 43.172 290.893 45.956 287.007 45.956C283.585 45.956 281.265 43.694 281.265 40.156C281.265 31.92 290.139 32.674 293.387 27.338V40.04ZM304.407 21.886C304.407 32.094 297.389 37.604 289.559 37.604C282.193 37.604 277.495 33.312 277.495 26.758C277.495 21.132 281.729 17.652 286.427 17.652C291.125 17.652 293.619 20.03 293.619 23.916C293.619 35.052 276.567 29.6 276.567 40.562C276.567 45.086 280.221 47.58 284.339 47.58C288.979 47.58 292.285 44.564 293.445 42.012C293.735 45.84 295.301 47.58 298.317 47.58C301.681 47.58 303.073 44.622 303.189 42.94H303.015C302.841 44.564 301.739 45.666 300.289 45.666C298.955 45.666 297.853 44.796 297.853 42.94V27.512C297.853 20.784 294.663 16.782 287.935 16.782C281.903 16.782 277.379 21.074 277.379 26.758C277.379 33.37 282.135 37.72 289.559 37.72C297.447 37.72 304.523 32.152 304.523 21.886C304.523 13.012 298.085 7.27 289.501 7.27C279.409 7.27 276.625 14.23 276.625 14.23H276.741C276.741 14.23 279.467 7.386 289.501 7.386C298.027 7.386 304.407 13.07 304.407 21.886Z" fill="#3D3D3D"/>
<path d="M32.0712 44.854L31.9848 44.9044L32.1712 45.2237V44.854H32.0712ZM9.6252 6.4L9.71157 6.34959L9.68262 6.3H9.6252V6.4ZM0.693203 6.4V6.3H0.593204V6.4H0.693203ZM0.693203 6.574H0.593204V6.674H0.693203V6.574ZM4.3472 6.574H4.4472V6.474H4.3472V6.574ZM0.693203 46.826V46.726H0.593204V46.826H0.693203ZM0.693203 47H0.593204V47.1H0.693203V47ZM8.8132 47V47.1H8.9132V47H8.8132ZM8.8132 46.826H8.9132V46.726H8.8132V46.826ZM4.5792 6.98L4.66528 6.9291L4.4792 6.61441V6.98H4.5792ZM28.2432 47L28.1571 47.0509L28.1862 47.1H28.2432V47ZM32.3032 47V47.1H32.4032V47H32.3032ZM35.9572 6.574V6.674H36.0572V6.574H35.9572ZM35.9572 6.4H36.0572V6.3H35.9572V6.4ZM26.9672 8.488L26.9963 8.39233L26.8672 8.35303V8.488H26.9672ZM26.9672 8.604H26.8672V8.67556L26.9349 8.69865L26.9672 8.604ZM26.5032 6.674C27.9285 6.674 29.2917 7.18647 30.2997 8.3294C31.3086 9.47328 31.9712 11.2596 31.9712 13.824H32.1712C32.1712 11.2264 31.4998 9.38772 30.4497 8.1971C29.3988 7.00553 27.9779 6.474 26.5032 6.474V6.674ZM31.9712 13.824V44.854H32.1712V13.824H31.9712ZM32.1576 44.8036L9.71157 6.34959L9.53884 6.45041L31.9848 44.9044L32.1576 44.8036ZM9.6252 6.3H0.693203V6.5H9.6252V6.3ZM0.593204 6.4V6.574H0.793203V6.4H0.593204ZM0.693203 6.674H4.3472V6.474H0.693203V6.674ZM4.2472 6.574V39.576H4.4472V6.574H4.2472ZM4.2472 39.576C4.2472 42.1496 3.85638 43.9422 3.21592 45.088C2.57878 46.2277 1.69648 46.726 0.693203 46.726V46.926C1.77793 46.926 2.72263 46.3803 3.39049 45.1855C4.05503 43.9968 4.4472 42.1644 4.4472 39.576H4.2472ZM0.593204 46.826V47H0.793203V46.826H0.593204ZM0.693203 47.1H8.8132V46.9H0.693203V47.1ZM8.9132 47V46.826H8.7132V47H8.9132ZM8.8132 46.726H8.5232V46.926H8.8132V46.726ZM8.5232 46.726C7.54723 46.726 6.59122 46.2258 5.87466 45.0836C5.15606 43.9381 4.6792 42.1465 4.6792 39.576H4.4792C4.4792 42.1675 4.95934 44.0009 5.70524 45.1899C6.45319 46.3822 7.46917 46.926 8.5232 46.926V46.726ZM4.6792 39.576V6.98H4.4792V39.576H4.6792ZM4.49313 7.0309L28.1571 47.0509L28.3293 46.9491L4.66528 6.9291L4.49313 7.0309ZM28.2432 47.1H32.3032V46.9H28.2432V47.1ZM32.4032 47V13.824H32.2032V47H32.4032ZM32.4032 13.824C32.4032 11.2504 32.794 9.45776 33.4345 8.31204C34.0716 7.17227 34.9539 6.674 35.9572 6.674V6.474C34.8725 6.474 33.9278 7.01973 33.2599 8.21445C32.5954 9.40323 32.2032 11.2356 32.2032 13.824H32.4032ZM36.0572 6.574V6.4H35.8572V6.574H36.0572ZM35.9572 6.3H26.5032V6.5H35.9572V6.3ZM26.5032 6.3C24.6012 6.3 22.981 6.81209 21.8346 7.78836C20.6862 8.76635 20.0232 10.2019 20.0232 12.026H20.2232C20.2232 10.2541 20.8652 8.87664 21.9643 7.94063C23.0654 7.0029 24.6352 6.5 26.5032 6.5V6.3ZM20.0232 12.026C20.0232 14.9781 22.0949 17.114 24.9372 17.114V16.914C22.2115 16.914 20.2232 14.8739 20.2232 12.026H20.0232ZM24.9372 17.114C27.7159 17.114 29.7352 15.1577 29.7352 12.432H29.5352C29.5352 15.0423 27.6105 16.914 24.9372 16.914V17.114ZM29.7352 12.432C29.7352 10.8333 29.0527 9.82136 28.3677 9.21085C28.0262 8.90647 27.6849 8.70243 27.4288 8.57437C27.3006 8.51029 27.1936 8.4651 27.118 8.43578C27.0803 8.42112 27.0504 8.41042 27.0297 8.40331C27.0193 8.39975 27.0112 8.39709 27.0056 8.39527C27.0028 8.39437 27.0006 8.39367 26.9991 8.39318C26.9983 8.39294 26.9977 8.39275 26.9972 8.3926C26.997 8.39253 26.9968 8.39248 26.9966 8.39243C26.9966 8.39241 26.9965 8.39238 26.9965 8.39237C26.9964 8.39235 26.9963 8.39233 26.9672 8.488C26.9381 8.58367 26.938 8.58365 26.938 8.58364C26.938 8.58364 26.938 8.58364 26.938 8.58364C26.938 8.58365 26.9381 8.58366 26.9382 8.58369C26.9384 8.58375 26.9387 8.58386 26.9392 8.58401C26.9402 8.58433 26.9419 8.58485 26.9441 8.58557C26.9486 8.58702 26.9555 8.5893 26.9647 8.59246C26.983 8.59877 27.0105 8.60857 27.0457 8.62223C27.116 8.64955 27.2174 8.69227 27.3394 8.75325C27.5835 8.87531 27.9092 9.07003 28.2347 9.36015C28.8837 9.93864 29.5352 10.8987 29.5352 12.432H29.7352ZM26.8672 8.488V8.604H27.0672V8.488H26.8672ZM26.9672 8.604C26.9349 8.69865 26.9349 8.69863 26.9349 8.69862C26.9349 8.69863 26.9349 8.69862 26.9349 8.69862C26.9349 8.69863 26.9349 8.69864 26.935 8.69868C26.9352 8.69874 26.9355 8.69885 26.936 8.69902C26.937 8.69936 26.9385 8.69991 26.9407 8.70068C26.945 8.70223 26.9516 8.70465 26.9604 8.70798C26.978 8.71465 27.0042 8.72497 27.0378 8.73923C27.1052 8.76777 27.2021 8.81203 27.3188 8.87436C27.5524 8.99911 27.864 9.19565 28.1755 9.48232C28.7968 10.0542 29.4192 10.9858 29.4192 12.432H29.6192C29.6192 10.9202 28.9656 9.93779 28.3109 9.33517C27.9844 9.03459 27.658 8.82876 27.4131 8.69795C27.2905 8.63249 27.1881 8.58568 27.1159 8.55508C27.0798 8.53978 27.0512 8.52852 27.0313 8.521C27.0214 8.51724 27.0137 8.51441 27.0084 8.51248C27.0057 8.51152 27.0036 8.51078 27.0021 8.51026C27.0014 8.51 27.0008 8.50979 27.0003 8.50964C27.0001 8.50956 26.9999 8.5095 26.9998 8.50945C26.9997 8.50943 26.9996 8.5094 26.9996 8.50939C26.9995 8.50937 26.9995 8.50935 26.9672 8.604ZM29.4192 12.432C29.4192 14.9842 27.5526 16.798 24.9372 16.798V16.998C27.6579 16.998 29.6192 15.0998 29.6192 12.432H29.4192ZM24.9372 16.798C22.2696 16.798 20.3392 14.816 20.3392 12.026H20.1392C20.1392 14.92 22.1528 16.998 24.9372 16.998V16.798ZM20.3392 12.026C20.3392 10.2831 20.9667 8.94956 22.0433 8.04999C23.1224 7.14841 24.6632 6.674 26.5032 6.674V6.474C24.6312 6.474 23.04 6.95658 21.9151 7.89651C20.7877 8.83843 20.1392 10.2309 20.1392 12.026H20.3392ZM52.3309 45.144L52.332 45.044H52.3309V45.144ZM46.9369 43.23L47.0154 43.1681L46.8369 42.9415V43.23H46.9369ZM46.9369 43.346H46.8369V43.378L46.8555 43.4041L46.9369 43.346ZM50.2429 19.856L50.2684 19.7593L50.1429 19.7262V19.856H50.2429ZM50.2429 19.972H50.1429V20.0506L50.2193 20.0692L50.2429 19.972ZM52.3309 45.044C50.4051 45.044 49.0733 44.57 48.2251 44.0995C47.8007 43.8642 47.4967 43.6293 47.2996 43.4543C47.201 43.3668 47.1292 43.2942 47.0824 43.244C47.059 43.2189 47.0418 43.1994 47.0307 43.1865C47.0252 43.18 47.0212 43.1752 47.0186 43.1721C47.0173 43.1705 47.0164 43.1694 47.0159 43.1687C47.0157 43.1684 47.0155 43.1682 47.0154 43.1681C47.0154 43.168 47.0153 43.168 47.0153 43.168C47.0153 43.168 47.0154 43.168 47.0154 43.168C47.0154 43.1681 47.0154 43.1681 46.9369 43.23C46.8583 43.2919 46.8584 43.2919 46.8584 43.292C46.8584 43.292 46.8585 43.2921 46.8585 43.2922C46.8586 43.2923 46.8588 43.2924 46.8589 43.2926C46.8592 43.293 46.8596 43.2935 46.8601 43.294C46.861 43.2952 46.8623 43.2969 46.864 43.2989C46.8674 43.3031 46.8723 43.309 46.8788 43.3165C46.8917 43.3316 46.9107 43.3532 46.9361 43.3805C46.987 43.435 47.0633 43.5119 47.1668 43.6038C47.3739 43.7877 47.6898 44.0313 48.1281 44.2744C49.0055 44.761 50.3706 45.244 52.3309 45.244V45.044ZM46.8369 43.23V43.346H47.0369V43.23H46.8369ZM46.9369 43.346C46.8555 43.4041 46.8555 43.4042 46.8556 43.4043C46.8556 43.4043 46.8557 43.4044 46.8557 43.4044C46.8558 43.4046 46.8559 43.4047 46.8561 43.4049C46.8564 43.4053 46.8568 43.4058 46.8572 43.4065C46.8581 43.4078 46.8594 43.4095 46.8611 43.4117C46.8644 43.4162 46.8692 43.4225 46.8755 43.4305C46.8882 43.4466 46.9069 43.4697 46.9319 43.4987C46.9821 43.5567 47.0579 43.6385 47.1621 43.7361C47.3705 43.9315 47.6922 44.1901 48.1492 44.4481C49.0638 44.9644 50.5164 45.476 52.6789 45.476V45.276C50.5494 45.276 49.1309 44.7726 48.2475 44.2739C47.8055 44.0244 47.4965 43.7755 47.2989 43.5902C47.2001 43.4976 47.1291 43.4208 47.0832 43.3678C47.0602 43.3413 47.0436 43.3207 47.0329 43.3071C47.0275 43.3002 47.0237 43.2951 47.0212 43.2919C47.02 43.2903 47.0192 43.2891 47.0187 43.2885C47.0184 43.2881 47.0183 43.2879 47.0182 43.2878C47.0182 43.2878 47.0181 43.2877 47.0182 43.2877C47.0182 43.2878 47.0182 43.2878 47.0182 43.2878C47.0182 43.2878 47.0182 43.2879 46.9369 43.346ZM52.6789 45.476C59.6501 45.476 64.8429 39.2101 64.8429 31.456H64.6429C64.6429 39.1299 59.5116 45.276 52.6789 45.276V45.476ZM64.8429 31.456C64.8429 22.9398 59.1209 16.856 51.3449 16.856V17.056C58.9969 17.056 64.6429 23.0362 64.6429 31.456H64.8429ZM51.3449 16.856C43.7971 16.856 37.5569 23.8139 37.5569 32.384H37.7569C37.7569 23.9021 43.9286 17.056 51.3449 17.056V16.856ZM37.5569 32.384C37.5569 40.9044 44.3269 47.622 52.0989 47.622V47.422C44.4429 47.422 37.7569 40.7996 37.7569 32.384H37.5569ZM52.0989 47.622C56.5312 47.622 60.7768 46.0035 63.9146 42.8657C67.053 39.7273 69.0769 35.0752 69.0769 29.02H68.8769C68.8769 35.0288 66.8697 39.6277 63.7732 42.7243C60.6759 45.8215 56.4825 47.422 52.0989 47.422V47.622ZM69.0769 29.02C69.0769 23.7205 67.3732 19.1853 64.359 15.9741C61.3443 12.7622 57.025 10.882 51.8089 10.882V11.082C56.9747 11.082 61.2395 12.9428 64.2132 16.1109C67.1875 19.2797 68.8769 23.7635 68.8769 29.02H69.0769ZM51.8089 10.882C42.7726 10.882 35.7589 17.0662 35.7589 25.714H35.9589C35.9589 17.1938 42.8652 11.082 51.8089 11.082V10.882ZM35.7589 25.714C35.7589 28.7495 36.6639 31.3273 38.3225 33.1474C39.982 34.9685 42.388 36.022 45.3709 36.022V35.822C42.4377 35.822 40.0877 34.7875 38.4703 33.0126C36.8519 31.2367 35.9589 28.7105 35.9589 25.714H35.7589ZM45.3709 36.022C48.0627 36.022 50.351 35.0853 51.9666 33.4697C53.5822 31.8541 54.5189 29.5658 54.5189 26.874H54.3189C54.3189 29.5182 53.3996 31.7539 51.8252 33.3283C50.2508 34.9027 48.0151 35.822 45.3709 35.822V36.022ZM54.5189 26.874C54.5189 23.8895 53.4643 22.109 52.4006 21.0748C51.8699 20.5589 51.339 20.2306 50.9401 20.0312C50.7406 19.9314 50.574 19.8638 50.4566 19.821C50.3979 19.7995 50.3515 19.7843 50.3195 19.7743C50.3035 19.7693 50.291 19.7657 50.2824 19.7632C50.2781 19.762 50.2748 19.761 50.2724 19.7604C50.2713 19.7601 50.2703 19.7598 50.2697 19.7596C50.2693 19.7596 50.269 19.7595 50.2688 19.7594C50.2687 19.7594 50.2686 19.7594 50.2686 19.7594C50.2685 19.7593 50.2684 19.7593 50.2429 19.856C50.2174 19.9527 50.2173 19.9527 50.2173 19.9527C50.2173 19.9527 50.2173 19.9527 50.2173 19.9527C50.2173 19.9527 50.2174 19.9527 50.2176 19.9528C50.218 19.9528 50.2185 19.953 50.2194 19.9532C50.221 19.9537 50.2237 19.9544 50.2273 19.9555C50.2345 19.9575 50.2455 19.9608 50.2601 19.9653C50.2892 19.9744 50.3325 19.9886 50.388 20.0088C50.499 20.0494 50.6586 20.1141 50.8507 20.2101C51.2348 20.4021 51.7479 20.7191 52.2612 21.2182C53.2855 22.214 54.3189 23.9425 54.3189 26.874H54.5189ZM50.1429 19.856V19.972H50.3429V19.856H50.1429ZM50.2429 19.972C50.2193 20.0692 50.2192 20.0692 50.2192 20.0692C50.2192 20.0692 50.2192 20.0692 50.2192 20.0692C50.2192 20.0692 50.2193 20.0692 50.2195 20.0692C50.2198 20.0693 50.2204 20.0694 50.2212 20.0696C50.2228 20.0701 50.2253 20.0707 50.2288 20.0716C50.2357 20.0735 50.2464 20.0764 50.2605 20.0805C50.2887 20.0887 50.3307 20.1017 50.3846 20.1204C50.4922 20.1578 50.6472 20.2179 50.8336 20.3084C51.2064 20.4896 51.7047 20.7919 52.2032 21.2762C53.1979 22.2425 54.2029 23.9417 54.2029 26.874H54.4029C54.4029 23.8903 53.3779 22.1385 52.3426 21.1328C51.8261 20.6311 51.3093 20.3172 50.9209 20.1285C50.7267 20.0342 50.5644 19.9711 50.4501 19.9314C50.3929 19.9116 50.3477 19.8976 50.3165 19.8885C50.3008 19.884 50.2887 19.8806 50.2803 19.8784C50.2761 19.8773 50.2728 19.8764 50.2705 19.8758C50.2693 19.8755 50.2684 19.8753 50.2677 19.8751C50.2674 19.8751 50.2671 19.875 50.2669 19.8749C50.2668 19.8749 50.2667 19.8749 50.2667 19.8749C50.2666 19.8748 50.2665 19.8748 50.2429 19.972ZM54.2029 26.874C54.2029 29.4606 53.3123 31.6673 51.7668 33.2271C50.2215 34.7868 48.015 35.706 45.3709 35.706V35.906C48.0628 35.906 50.3223 34.9692 51.9089 33.3679C53.4954 31.7667 54.4029 29.5074 54.4029 26.874H54.2029ZM45.3709 35.706C42.4666 35.706 40.1457 34.686 38.5501 32.9329C36.9535 31.1788 36.0749 28.6816 36.0749 25.714H35.8749C35.8749 28.7204 36.7653 31.2692 38.4022 33.0676C40.0401 34.867 42.4171 35.906 45.3709 35.906V35.706ZM36.0749 25.714C36.0749 17.2518 42.9231 11.198 51.8089 11.198V10.998C42.8307 10.998 35.8749 17.1242 35.8749 25.714H36.0749ZM51.8089 11.198C56.9455 11.198 61.1813 13.0587 64.1334 16.2123C67.0861 19.3667 68.7609 23.8215 68.7609 29.02H68.9609C68.9609 23.7785 67.2717 19.2723 64.2794 16.0757C61.2864 12.8783 56.9962 10.998 51.8089 10.998V11.198ZM68.7609 29.02C68.7609 35.0004 66.8113 39.4833 63.8526 42.4709C60.8931 45.4592 56.9174 46.958 52.8529 46.958V47.158C56.9664 47.158 60.9947 45.6408 63.9947 42.6116C66.9954 39.5817 68.9609 35.0456 68.9609 29.02H68.7609ZM52.8529 46.958C49.7892 46.958 47.2223 45.356 45.4174 42.6954C43.6113 40.033 42.5709 36.3128 42.5709 32.094H42.3709C42.3709 36.3432 43.4184 40.105 45.2519 42.8076C47.0864 45.512 49.7105 47.158 52.8529 47.158V46.958ZM42.5709 32.094C42.5709 27.8397 43.2803 24.1322 44.7335 21.492C46.184 18.8566 48.3723 17.288 51.3449 17.288V17.088C48.2855 17.088 46.0367 18.7094 44.5583 21.3955C43.0825 24.0768 42.3709 27.8223 42.3709 32.094H42.5709ZM51.3449 17.288C54.1725 17.288 56.2883 18.7841 57.7026 21.3399C59.1195 23.9003 59.8289 27.5209 59.8289 31.746H60.0289C60.0289 27.5031 59.3173 23.8447 57.8776 21.2431C56.4354 18.6369 54.2592 17.088 51.3449 17.088V17.288ZM59.8289 31.746C59.8289 35.5374 59.2496 38.8833 58.0202 41.2702C56.7933 43.6524 54.9242 45.0725 52.332 45.044L52.3298 45.244C55.0156 45.2735 56.9455 43.7936 58.198 41.3618C59.4481 38.9347 60.0289 35.5526 60.0289 31.746H59.8289ZM89.5574 24.09L89.4637 24.0551L89.4635 24.0555L89.5574 24.09ZM82.4234 43.52L82.3302 43.5563L82.4261 43.8026L82.5172 43.5545L82.4234 43.52ZM72.3894 17.768V17.668H72.2431L72.2962 17.8043L72.3894 17.768ZM76.2174 17.768V17.868H76.3174V17.768H76.2174ZM76.2174 17.594H76.3174V17.494H76.2174V17.594ZM64.4434 17.594V17.494H64.3434V17.594H64.4434ZM64.4434 17.768H64.3434V17.868H64.4434V17.768ZM67.6914 17.768L67.7844 17.7313L67.7594 17.668H67.6914V17.768ZM79.2334 47L79.1404 47.0367L79.1653 47.1H79.2334V47ZM81.3794 47V47.1H81.4491L81.4732 47.0345L81.3794 47ZM89.7894 24.148L89.8833 24.1826L89.8845 24.1787L89.7894 24.148ZM95.3574 17.768V17.868H95.4574V17.768H95.3574ZM95.3574 17.594H95.4574V17.494H95.3574V17.594ZM79.4074 33.312H79.3074V33.412H79.4074V33.312ZM79.5234 33.312V33.412H79.6234V33.312H79.5234ZM85.2654 17.868C87.6257 17.868 88.973 18.5868 89.5859 19.6942C90.2027 20.8087 90.0979 22.354 89.4637 24.0551L89.6511 24.1249C90.2928 22.404 90.42 20.7883 89.7609 19.5973C89.0977 18.3992 87.661 17.668 85.2654 17.668V17.868ZM89.4635 24.0555L82.3295 43.4855L82.5172 43.5545L89.6512 24.1245L89.4635 24.0555ZM82.5165 43.4837L72.4825 17.7317L72.2962 17.8043L82.3302 43.5563L82.5165 43.4837ZM72.3894 17.868H76.2174V17.668H72.3894V17.868ZM76.3174 17.768V17.594H76.1174V17.768H76.3174ZM76.2174 17.494H64.4434V17.694H76.2174V17.494ZM64.3434 17.594V17.768H64.5434V17.594H64.3434ZM64.4434 17.868H67.6914V17.668H64.4434V17.868ZM67.5984 17.8047L79.1404 47.0367L79.3264 46.9633L67.7844 17.7313L67.5984 17.8047ZM79.2334 47.1H81.3794V46.9H79.2334V47.1ZM81.4732 47.0345L89.8832 24.1825L89.6955 24.1135L81.2855 46.9655L81.4732 47.0345ZM89.8845 24.1787C90.4347 22.4701 91.0833 20.8877 91.929 19.7339C92.7732 18.5821 93.8051 17.868 95.1254 17.868V17.668C93.7196 17.668 92.6345 18.4329 91.7677 19.6156C90.9024 20.7963 90.246 22.4039 89.6942 24.1173L89.8845 24.1787ZM95.1254 17.868H95.3574V17.668H95.1254V17.868ZM95.4574 17.768V17.594H95.2574V17.768H95.4574ZM95.3574 17.494H85.2654V17.694H95.3574V17.494ZM85.2654 17.494C80.5456 17.494 76.8797 18.9949 74.3932 21.4082C71.9069 23.8214 70.6074 27.1397 70.6074 30.76H70.8074C70.8074 27.1883 72.0888 23.9236 74.5325 21.5518C76.976 19.1801 80.5891 17.694 85.2654 17.694V17.494ZM70.6074 30.76C70.6074 35.1925 72.1391 38.4819 74.4081 40.6631C76.6757 42.8429 79.6737 43.91 82.5974 43.91V43.71C79.721 43.71 76.774 42.6601 74.5467 40.5189C72.3207 38.3791 70.8074 35.1435 70.8074 30.76H70.6074ZM82.5974 43.91C88.7964 43.91 92.4994 39.6933 92.4994 35.11H92.2994C92.2994 39.5747 88.6943 43.71 82.5974 43.71V43.91ZM92.4994 35.11C92.4994 30.5943 89.386 27.644 85.7874 27.644V27.844C89.2647 27.844 92.2994 30.6937 92.2994 35.11H92.4994ZM85.7874 27.644C82.7365 27.644 81.1097 28.9525 80.2506 30.3226C79.3963 31.6851 79.3074 33.0977 79.3074 33.312H79.5074C79.5074 33.1203 79.5924 31.7489 80.4201 30.4289C81.243 29.1165 82.8062 27.844 85.7874 27.844V27.644ZM79.4074 33.412H79.5234V33.212H79.4074V33.412ZM79.6234 33.312C79.6234 33.1193 79.6943 31.7772 80.4999 30.4867C81.3008 29.2039 82.8346 27.96 85.7874 27.96V27.76C82.7661 27.76 81.1679 29.0391 80.3303 30.3808C79.4974 31.7148 79.4234 33.0987 79.4234 33.312H79.6234ZM85.7874 27.96C89.2066 27.96 92.1834 30.7516 92.1834 35.11H92.3834C92.3834 30.6524 89.3281 27.76 85.7874 27.76V27.96ZM92.1834 35.11C92.1834 39.5166 88.6364 43.594 82.5974 43.594V43.794C88.7383 43.794 92.3834 39.6354 92.3834 35.11H92.1834ZM82.5974 43.594C79.7499 43.594 76.832 42.5585 74.6264 40.4391C72.4222 38.3211 70.9234 35.1146 70.9234 30.76H70.7234C70.7234 35.1634 72.2405 38.4239 74.4878 40.5834C76.7338 42.7415 79.7028 43.794 82.5974 43.794V43.594ZM70.9234 30.76C70.9234 27.217 72.176 23.996 74.5904 21.6606C77.0046 19.3255 80.5886 17.868 85.2654 17.868V17.668C80.5461 17.668 76.9091 19.1395 74.4513 21.5169C71.9937 23.894 70.7234 27.169 70.7234 30.76H70.9234ZM111.344 27.338H111.444V26.9814L111.259 27.286L111.344 27.338ZM111.402 42.012L111.502 42.0044L111.311 41.9706L111.402 42.012ZM121.146 42.94L121.246 42.9469L121.253 42.84H121.146V42.94ZM120.972 42.94V42.84H120.882L120.873 42.9293L120.972 42.94ZM94.5821 14.23L94.4892 14.1929L94.4344 14.33H94.5821V14.23ZM94.6981 14.23V14.33H94.7659L94.791 14.267L94.6981 14.23ZM111.244 40.04C111.244 43.1149 108.797 45.856 104.964 45.856V46.056C108.903 46.056 111.444 43.2291 111.444 40.04H111.244ZM104.964 45.856C103.276 45.856 101.867 45.2983 100.881 44.312C99.8943 43.3258 99.3221 41.9026 99.3221 40.156H99.1221C99.1221 41.9474 99.7098 43.4242 100.739 44.4535C101.768 45.4827 103.231 46.056 104.964 46.056V45.856ZM99.3221 40.156C99.3221 38.1168 99.8707 36.6413 100.739 35.4892C101.61 34.3346 102.806 33.4981 104.115 32.7462C104.769 32.3703 105.448 32.0171 106.128 31.6553C106.807 31.294 107.485 30.9247 108.133 30.5185C109.428 29.706 110.606 28.7426 111.429 27.39L111.259 27.286C110.458 28.6014 109.309 29.5448 108.027 30.349C107.385 30.7512 106.713 31.1177 106.034 31.4787C105.357 31.8392 104.673 32.1947 104.015 32.5728C102.699 33.3289 101.474 34.1817 100.58 35.3688C99.6827 36.5585 99.1221 38.0772 99.1221 40.156H99.3221ZM111.244 27.338V40.04H111.444V27.338H111.244ZM122.264 21.886C122.264 26.9659 120.518 30.8685 117.807 33.5013C115.094 36.1348 111.408 37.504 107.516 37.504V37.704C111.454 37.704 115.192 36.3182 117.946 33.6447C120.701 30.9705 122.464 27.0141 122.464 21.886H122.264ZM107.516 37.504C103.852 37.504 100.862 36.4367 98.7888 34.5645C96.7168 32.6932 95.5521 30.0098 95.5521 26.758H95.3521C95.3521 30.0602 96.5363 32.7998 98.6548 34.713C100.772 36.6253 103.814 37.704 107.516 37.704V37.504ZM95.5521 26.758C95.5521 21.1914 99.737 17.752 104.384 17.752V17.552C99.6351 17.552 95.3521 21.0726 95.3521 26.758H95.5521ZM104.384 17.752C106.717 17.752 108.488 18.3425 109.675 19.4014C110.86 20.4588 111.476 21.9952 111.476 23.916H111.676C111.676 21.9508 111.045 20.3552 109.808 19.2521C108.574 18.1505 106.749 17.552 104.384 17.552V17.752ZM111.476 23.916C111.476 26.6685 110.425 28.3866 108.851 29.5941C107.268 30.8079 105.154 31.5083 103.019 32.2092C100.892 32.9074 98.7428 33.6062 97.1283 34.8226C95.5052 36.0454 94.4241 37.7892 94.4241 40.562H94.6241C94.6241 37.8537 95.6744 36.1684 97.2486 34.9823C98.8314 33.7899 100.945 33.1003 103.081 32.3993C105.209 31.7009 107.358 30.9912 108.973 29.7528C110.595 28.5079 111.676 26.7315 111.676 23.916H111.476ZM94.4241 40.562C94.4241 42.8536 95.3507 44.6363 96.8018 45.8444C98.251 47.0508 100.218 47.68 102.296 47.68V47.48C100.256 47.48 98.3371 46.8622 96.9298 45.6906C95.5245 44.5207 94.6241 42.7944 94.6241 40.562H94.4241ZM102.296 47.68C106.98 47.68 110.319 44.6362 111.493 42.0534L111.311 41.9706C110.165 44.4918 106.892 47.48 102.296 47.48V47.68ZM111.302 42.0196C111.448 43.9434 111.915 45.3607 112.741 46.2976C113.569 47.2383 114.746 47.68 116.274 47.68V47.48C114.786 47.48 113.672 47.0517 112.891 46.1654C112.107 45.2753 111.646 43.9086 111.502 42.0044L111.302 42.0196ZM116.274 47.68C117.989 47.68 119.206 46.9243 120.005 45.9544C120.802 44.9876 121.186 43.8074 121.246 42.9469L121.046 42.9331C120.99 43.7546 120.62 44.8944 119.851 45.8271C119.085 46.7567 117.923 47.48 116.274 47.48V47.68ZM121.146 42.84H120.972V43.04H121.146V42.84ZM120.873 42.9293C120.703 44.5123 119.636 45.566 118.246 45.566V45.766C119.756 45.766 120.893 44.6157 121.072 42.9507L120.873 42.9293ZM118.246 45.566C117.601 45.566 117.019 45.3559 116.599 44.9289C116.179 44.5021 115.91 43.8479 115.91 42.94H115.71C115.71 43.8881 115.992 44.5969 116.457 45.0691C116.921 45.5411 117.557 45.766 118.246 45.766V45.566ZM115.91 42.94V27.512H115.71V42.94H115.91ZM115.91 27.512C115.91 24.1338 115.109 21.4238 113.449 19.5575C111.786 17.6892 109.276 16.682 105.892 16.682V16.882C109.236 16.882 111.685 17.8758 113.299 19.6905C114.916 21.5072 115.71 24.1622 115.71 27.512H115.91ZM105.892 16.682C99.8101 16.682 95.2361 21.0136 95.2361 26.758H95.4361C95.4361 21.1344 99.91 16.882 105.892 16.882V16.682ZM95.2361 26.758C95.2361 30.0893 96.4349 32.8578 98.575 34.7927C100.714 36.7267 103.785 37.82 107.516 37.82V37.62C103.823 37.62 100.804 36.5383 98.7091 34.6443C96.6152 32.7512 95.4361 30.0387 95.4361 26.758H95.2361ZM107.516 37.82C111.483 37.82 115.25 36.4196 118.026 33.7245C120.802 31.0285 122.58 27.0432 122.58 21.886H122.38C122.38 26.9948 120.62 30.9265 117.886 33.581C115.152 36.2364 111.437 37.62 107.516 37.62V37.82ZM122.58 21.886C122.58 17.4237 120.961 13.7427 118.257 11.1777C115.554 8.61323 111.772 7.17 107.458 7.17V7.37C111.728 7.37 115.458 8.79776 118.119 11.3228C120.78 13.8473 122.38 17.4743 122.38 21.886H122.58ZM107.458 7.17C102.387 7.17 99.1442 8.91966 97.1691 10.6753C96.1824 11.5523 95.5133 12.4297 95.0906 13.0885C94.8792 13.4179 94.7293 13.6929 94.6321 13.886C94.5835 13.9825 94.548 14.0586 94.5245 14.1109C94.5128 14.1371 94.5041 14.1572 94.4983 14.171C94.4953 14.1779 94.4931 14.1832 94.4916 14.1869C94.4909 14.1887 94.4903 14.1901 94.4899 14.1911C94.4897 14.1916 94.4895 14.192 94.4894 14.1923C94.4894 14.1925 94.4893 14.1926 94.4893 14.1927C94.4893 14.1928 94.4892 14.1929 94.5821 14.23C94.6749 14.2671 94.6749 14.2672 94.6749 14.2672C94.6749 14.2671 94.6749 14.2671 94.6749 14.267C94.675 14.2669 94.6751 14.2667 94.6752 14.2663C94.6755 14.2656 94.676 14.2645 94.6766 14.263C94.6778 14.26 94.6798 14.2553 94.6824 14.249C94.6878 14.2365 94.6959 14.2176 94.707 14.1927C94.7293 14.1431 94.7635 14.0697 94.8107 13.9759C94.9051 13.7884 95.0516 13.5196 95.2589 13.1965C95.6735 12.5503 96.3312 11.6877 97.302 10.8247C99.242 9.10033 102.438 7.37 107.458 7.37V7.17ZM94.5821 14.33H94.6981V14.13H94.5821V14.33ZM94.6981 14.23C94.791 14.267 94.791 14.267 94.7909 14.267C94.791 14.267 94.791 14.267 94.791 14.2669C94.7911 14.2668 94.7911 14.2666 94.7913 14.2662C94.7915 14.2655 94.792 14.2645 94.7926 14.263C94.7938 14.26 94.7957 14.2554 94.7983 14.2492C94.8035 14.2369 94.8115 14.2184 94.8224 14.194C94.8442 14.1452 94.8778 14.073 94.9241 13.9809C95.0168 13.7965 95.1608 13.5323 95.3649 13.2147C95.7731 12.5795 96.4217 11.7313 97.3815 10.8829C99.2996 9.18755 102.466 7.486 107.458 7.486V7.286C102.416 7.286 99.2025 9.00645 97.2491 10.7331C96.2732 11.5957 95.6131 12.4585 95.1967 13.1066C94.9884 13.4306 94.841 13.701 94.7455 13.891C94.6977 13.986 94.6628 14.0609 94.6398 14.1123C94.6283 14.138 94.6198 14.1579 94.6141 14.1715C94.6112 14.1783 94.609 14.1835 94.6076 14.1871C94.6068 14.1889 94.6062 14.1903 94.6059 14.1913C94.6057 14.1918 94.6055 14.1922 94.6054 14.1925C94.6053 14.1926 94.6053 14.1927 94.6052 14.1928C94.6052 14.1929 94.6052 14.193 94.6981 14.23ZM107.458 7.486C111.699 7.486 115.4 8.89931 118.04 11.4026C120.679 13.9052 122.264 17.5033 122.264 21.886H122.464C122.464 17.4527 120.859 13.8008 118.177 11.2574C115.496 8.71468 111.743 7.286 107.458 7.286V7.486ZM146.06 6.574V6.474H145.96V6.574H146.06ZM152.382 25.54L152.355 25.4437L152.282 25.4642V25.54H152.382ZM152.382 25.656H152.282V25.7859L152.408 25.7527L152.382 25.656ZM137.65 6.4V6.3H137.55V6.4H137.65ZM137.65 6.574H137.55V6.674H137.65V6.574ZM141.304 6.574H141.404V6.474H141.304V6.574ZM141.304 46.826V46.926H141.404V46.826H141.304ZM137.65 46.826V46.726H137.55V46.826H137.65ZM137.65 47H137.55V47.1H137.65V47ZM149.656 47V47.1H149.756V47H149.656ZM149.656 46.826H149.756V46.726H149.656V46.826ZM146.06 46.826H145.96V46.926H146.06V46.826ZM146.06 6.674H153.02V6.474H146.06V6.674ZM153.02 6.674C156.415 6.674 158.865 7.92424 160.469 9.86396C162.074 11.8064 162.838 14.4499 162.838 17.246H163.038C163.038 14.4161 162.265 11.7236 160.623 9.73654C158.978 7.74676 156.469 6.474 153.02 6.474V6.674ZM162.838 17.246C162.838 20.1297 162.074 22.8031 160.54 24.7532C159.008 26.7003 156.703 27.934 153.6 27.934V28.134C156.762 28.134 159.126 26.8737 160.697 24.8768C162.266 22.8829 163.038 20.1623 163.038 17.246H162.838ZM153.6 27.934C151.67 27.934 150.098 27.516 149.012 26.7278C147.929 25.9426 147.32 24.7843 147.32 23.278H147.12C147.12 24.8457 147.758 26.0654 148.894 26.8897C150.026 27.711 151.645 28.134 153.6 28.134V27.934ZM147.32 23.278C147.32 22.1093 147.676 21.1639 148.287 20.5116C148.896 19.8598 149.768 19.492 150.816 19.492V19.292C149.719 19.292 148.792 19.6782 148.14 20.3749C147.489 21.0711 147.12 22.0687 147.12 23.278H147.32ZM150.816 19.492C151.809 19.492 152.638 19.8179 153.219 20.3775C153.799 20.9368 154.138 21.7364 154.138 22.698H154.338C154.338 21.6876 153.981 20.8342 153.358 20.2335C152.735 19.6331 151.853 19.292 150.816 19.292V19.492ZM154.138 22.698C154.138 23.8273 153.688 24.5117 153.243 24.9149C153.019 25.1176 152.796 25.2504 152.628 25.3324C152.545 25.3733 152.475 25.4015 152.427 25.4193C152.403 25.4282 152.385 25.4344 152.372 25.4384C152.366 25.4404 152.362 25.4418 152.359 25.4427C152.357 25.4431 152.356 25.4434 152.356 25.4436C152.355 25.4437 152.355 25.4437 152.355 25.4438C152.355 25.4438 152.355 25.4438 152.355 25.4438C152.355 25.4438 152.355 25.4438 152.355 25.4438C152.355 25.4437 152.355 25.4437 152.382 25.54C152.409 25.6363 152.409 25.6362 152.409 25.6362C152.409 25.6362 152.41 25.6362 152.41 25.6362C152.41 25.6361 152.41 25.6361 152.41 25.636C152.41 25.6359 152.411 25.6358 152.412 25.6356C152.413 25.6353 152.414 25.6348 152.416 25.6342C152.421 25.6329 152.426 25.6311 152.434 25.6287C152.449 25.6239 152.47 25.6167 152.497 25.6068C152.55 25.587 152.626 25.5562 152.716 25.512C152.897 25.4236 153.137 25.2809 153.377 25.0631C153.86 24.6253 154.338 23.8887 154.338 22.698H154.138ZM152.282 25.54V25.656H152.482V25.54H152.282ZM152.382 25.656C152.408 25.7527 152.408 25.7527 152.408 25.7526C152.408 25.7526 152.408 25.7526 152.408 25.7526C152.408 25.7526 152.408 25.7525 152.409 25.7525C152.409 25.7524 152.41 25.7522 152.41 25.752C152.411 25.7517 152.413 25.7512 152.415 25.7506C152.42 25.7494 152.426 25.7476 152.434 25.7452C152.449 25.7404 152.472 25.7331 152.5 25.7231C152.557 25.7031 152.637 25.6719 152.733 25.6269C152.924 25.5368 153.179 25.3905 153.434 25.1655C153.947 24.7132 154.454 23.9472 154.454 22.698H154.254C154.254 23.8848 153.775 24.5978 153.302 25.0155C153.064 25.2255 152.826 25.362 152.648 25.4459C152.559 25.4878 152.485 25.5165 152.434 25.5345C152.408 25.5435 152.388 25.5499 152.375 25.5539C152.369 25.5559 152.364 25.5574 152.361 25.5582C152.359 25.5587 152.358 25.559 152.357 25.5592C152.357 25.5593 152.357 25.5593 152.357 25.5593C152.357 25.5594 152.357 25.5594 152.357 25.5594C152.357 25.5594 152.357 25.5594 152.357 25.5594C152.357 25.5593 152.357 25.5593 152.382 25.656ZM154.454 22.698C154.454 21.6583 154.082 20.776 153.438 20.1538C152.793 19.5318 151.883 19.176 150.816 19.176V19.376C151.838 19.376 152.696 19.7162 153.299 20.2977C153.901 20.879 154.254 21.7077 154.254 22.698H154.454ZM150.816 19.176C149.69 19.176 148.734 19.5769 148.061 20.2951C147.388 21.0128 147.004 22.0393 147.004 23.278H147.204C147.204 22.0807 147.575 21.1062 148.207 20.4319C148.838 19.7581 149.739 19.376 150.816 19.376V19.176ZM147.004 23.278C147.004 24.8755 147.672 26.1382 148.851 26.9983C150.026 27.8557 151.702 28.308 153.716 28.308V28.108C151.729 28.108 150.099 27.6613 148.968 26.8367C147.842 26.0148 147.204 24.8125 147.204 23.278H147.004ZM153.716 28.308C157.623 28.308 161.212 27.0545 163.826 25.0245C166.44 22.9944 168.084 20.1834 168.084 17.072H167.884C167.884 20.1086 166.28 22.8655 163.703 24.8665C161.127 26.8675 157.581 28.108 153.716 28.108V28.308ZM168.084 17.072C168.084 13.9961 166.765 11.2997 164.379 9.37442C161.993 7.45023 158.548 6.3 154.296 6.3V6.5C158.513 6.5 161.911 7.64076 164.253 9.53008C166.593 11.4182 167.884 14.0579 167.884 17.072H168.084ZM154.296 6.3H137.65V6.5H154.296V6.3ZM137.55 6.4V6.574H137.75V6.4H137.55ZM137.65 6.674H141.304V6.474H137.65V6.674ZM141.204 6.574V46.826H141.404V6.574H141.204ZM141.304 46.726H137.65V46.926H141.304V46.726ZM137.55 46.826V47H137.75V46.826H137.55ZM137.65 47.1H149.656V46.9H137.65V47.1ZM149.756 47V46.826H149.556V47H149.756ZM149.656 46.726H146.06V46.926H149.656V46.726ZM146.16 46.826V6.574H145.96V46.826H146.16ZM194.922 27.628V27.528H194.822V27.628H194.922ZM194.922 27.744H194.822V27.844H194.922V27.744ZM174.854 38.358L174.756 38.3807L174.95 38.384L174.854 38.358ZM192.718 56.702C188.272 56.702 184.644 55.3168 182.128 53.0019C179.612 50.6875 178.202 47.4378 178.202 43.694H178.002C178.002 47.4902 179.433 50.7945 181.992 53.1491C184.551 55.5032 188.231 56.902 192.718 56.902V56.702ZM178.202 43.694C178.202 38.3403 181.941 33.76 186.918 33.76V33.56C181.803 33.56 178.002 38.2597 178.002 43.694H178.202ZM186.918 33.76C188.843 33.76 190.412 34.2915 191.499 35.2432C192.584 36.1936 193.198 37.5714 193.198 39.286H193.398C193.398 37.5206 192.764 36.0854 191.631 35.0928C190.499 34.1015 188.878 33.56 186.918 33.56V33.76ZM193.198 39.286C193.198 41.1137 192.456 42.8259 191.006 44.0824C189.556 45.3395 187.392 46.146 184.54 46.146V46.346C187.429 46.346 189.644 45.5285 191.137 44.2336C192.632 42.9381 193.398 41.1703 193.398 39.286H193.198ZM184.54 46.146C181.714 46.146 179.535 45.4108 178.063 44.211C176.594 43.0124 175.824 41.3447 175.824 39.46H175.624C175.624 41.4033 176.42 43.1286 177.937 44.366C179.453 45.6022 181.681 46.346 184.54 46.346V46.146ZM175.824 39.46C175.824 38.3014 176.086 37.3641 176.542 36.5886C176.999 35.8126 177.653 35.1934 178.443 34.6762C180.027 33.6391 182.142 33.0214 184.279 32.3709C186.407 31.723 188.555 31.0428 190.17 29.8759C191.792 28.7032 192.876 27.0392 192.876 24.438H192.676C192.676 26.9698 191.627 28.5756 190.053 29.7138C188.47 30.8578 186.355 31.5298 184.22 32.1796C182.094 32.8269 179.947 33.4525 178.333 34.5089C177.524 35.0384 176.846 35.6784 176.37 36.4872C175.894 37.2966 175.624 38.2696 175.624 39.46H175.824ZM192.876 24.438C192.876 22.1419 191.815 20.2138 190.015 18.8625C188.218 17.5127 185.687 16.74 182.742 16.74V16.94C185.654 16.94 188.14 17.7043 189.895 19.0225C191.649 20.3392 192.676 22.2101 192.676 24.438H192.876ZM182.742 16.74C174.957 16.74 169.36 23.8201 169.36 32.326H169.56C169.56 23.8959 175.099 16.94 182.742 16.94V16.74ZM169.36 32.326C169.36 40.8355 175.076 47.68 182.916 47.68V47.48C175.212 47.48 169.56 40.7525 169.56 32.326H169.36ZM182.916 47.68C190.273 47.68 193.514 43.1173 193.514 39.286H193.314C193.314 42.9947 190.175 47.48 182.916 47.48V47.68ZM193.514 39.286C193.514 37.4914 192.866 36.0274 191.711 35.0131C190.557 34.0001 188.908 33.444 186.918 33.444V33.644C188.872 33.644 190.47 34.1899 191.579 35.1634C192.686 36.1356 193.314 37.5426 193.314 39.286H193.514ZM186.918 33.444C181.745 33.444 177.886 38.2015 177.886 43.694H178.086C178.086 38.2825 181.883 33.644 186.918 33.644V33.444ZM177.886 43.694C177.886 47.5193 179.332 50.8525 181.913 53.2288C184.493 55.6047 188.202 57.018 192.718 57.018V56.818C188.244 56.818 184.586 55.4183 182.048 53.0817C179.511 50.7455 178.086 47.4667 178.086 43.694H177.886ZM192.718 57.018C201.812 57.018 208.942 50.8914 208.942 41.78H208.742C208.742 50.7646 201.719 56.818 192.718 56.818V57.018ZM208.942 41.78C208.942 36.2066 206.488 32.6395 203.506 30.4689C200.53 28.3019 197.028 27.528 194.922 27.528V27.728C196.991 27.728 200.45 28.4911 203.389 30.6306C206.323 32.7665 208.742 36.2754 208.742 41.78H208.942ZM194.822 27.628V27.744H195.022V27.628H194.822ZM194.922 27.844C196.962 27.844 200.392 28.5927 203.309 30.7104C206.221 32.8246 208.626 36.3044 208.626 41.78H208.826C208.826 36.2356 206.387 32.6974 203.427 30.5486C200.471 28.4033 196.999 27.644 194.922 27.644V27.844ZM208.626 41.78C208.626 50.7061 201.545 56.702 192.718 56.702V56.902C201.638 56.902 208.826 50.8339 208.826 41.78H208.626ZM182.742 17.114C184.417 17.114 185.721 17.8927 186.61 19.2017C187.502 20.5142 187.978 22.3632 187.978 24.496H188.178C188.178 22.3368 187.696 20.4448 186.776 19.0893C185.852 17.7303 184.489 16.914 182.742 16.914V17.114ZM187.978 24.496C187.978 26.6602 187.262 28.2207 186.165 29.4416C185.065 30.6662 183.578 31.553 182.028 32.3606C180.484 33.1651 178.871 33.8938 177.549 34.7963C176.223 35.7012 175.172 36.7916 174.757 38.332L174.95 38.384C175.347 36.9084 176.355 35.8528 177.661 34.9615C178.971 34.0679 180.562 33.3501 182.121 32.5379C183.674 31.7288 185.188 30.8284 186.314 29.5753C187.443 28.3186 188.178 26.7108 188.178 24.496H187.978ZM174.951 38.3353C174.547 36.6045 174.374 34.8724 174.374 32.616H174.174C174.174 34.8836 174.348 36.6315 174.756 38.3807L174.951 38.3353ZM174.374 32.616C174.374 28.392 175.126 24.5083 176.552 21.6846C177.979 18.8611 180.068 17.114 182.742 17.114V16.914C179.963 16.914 177.819 18.7339 176.374 21.5944C174.929 24.4547 174.174 28.372 174.174 32.616H174.374ZM204.418 25.366H204.318V25.5009L204.447 25.4617L204.418 25.366ZM207.492 42.94L207.592 42.9469L207.599 42.84H207.492V42.94ZM207.318 42.94V42.84H207.225L207.218 42.9329L207.318 42.94ZM204.418 25.25L204.389 25.1543L204.318 25.1759V25.25H204.418ZM204.447 25.4617C210.401 23.6522 214.494 18.8603 214.494 12.2H214.294C214.294 18.7636 210.267 23.4838 204.389 25.2703L204.447 25.4617ZM214.494 12.2C214.494 8.46592 213.283 5.43796 211.232 3.34304C209.181 1.24813 206.297 0.0939975 202.968 0.0939975V0.293998C206.25 0.293998 209.08 1.43086 211.089 3.48295C213.098 5.53504 214.294 8.51007 214.294 12.2H214.494ZM202.968 0.0939975C197.522 0.0939975 193.298 4.13756 193.298 9.474H193.498C193.498 4.25444 197.626 0.293998 202.968 0.293998V0.0939975ZM193.298 9.474C193.298 14.0557 196.651 17.172 201.054 17.172V16.972C196.756 16.972 193.498 13.9403 193.498 9.474H193.298ZM201.054 17.172C203.018 17.172 204.697 16.5562 205.886 15.4262C207.076 14.2957 207.766 12.6587 207.766 10.634H207.566C207.566 12.6113 206.893 14.1933 205.748 15.2813C204.603 16.3698 202.976 16.972 201.054 16.972V17.172ZM207.766 10.634C207.766 9.33878 207.354 7.9102 206.505 6.80316C205.654 5.69332 204.365 4.908 202.62 4.908V5.108C204.297 5.108 205.53 5.85968 206.347 6.92484C207.165 7.9928 207.566 9.37722 207.566 10.634H207.766ZM202.62 4.908C201.082 4.908 199.862 5.51592 199.03 6.64518C198.201 7.77039 197.764 9.40361 197.764 11.446H197.964C197.964 9.42839 198.396 7.8426 199.191 6.76382C199.983 5.68908 201.141 5.108 202.62 5.108V4.908ZM197.764 11.446V41.142H197.964V11.446H197.764ZM197.764 41.142C197.764 43.1831 198.172 44.816 198.971 45.9414C199.774 47.0717 200.966 47.68 202.504 47.68V47.48C201.026 47.48 199.897 46.8993 199.134 45.8256C198.368 44.747 197.964 43.1609 197.964 41.142H197.764ZM202.504 47.68C204.247 47.68 205.492 46.925 206.314 45.9554C207.133 44.9888 207.532 43.8084 207.592 42.9469L207.392 42.9331C207.335 43.7536 206.952 44.8932 206.161 45.8261C205.373 46.756 204.182 47.48 202.504 47.48V47.68ZM207.492 42.84H207.318V43.04H207.492V42.84ZM207.218 42.9329C207.105 44.5141 205.98 45.566 204.766 45.566V45.766C206.103 45.766 207.298 44.6139 207.417 42.9471L207.218 42.9329ZM204.766 45.566C204.12 45.566 203.524 45.3557 203.089 44.9277C202.654 44.5004 202.372 43.8465 202.372 42.94H202.172C202.172 43.8895 202.469 44.5986 202.948 45.0703C203.427 45.5413 204.077 45.766 204.766 45.766V45.566ZM202.372 42.94V9.648H202.172V42.94H202.372ZM202.372 9.648C202.372 8.74444 202.682 8.09076 203.144 7.66239C203.609 7.23261 204.236 7.022 204.882 7.022V6.822C204.194 6.822 203.516 7.04638 203.009 7.5156C202.5 7.98623 202.172 8.69555 202.172 9.648H202.372ZM204.882 7.022C206.084 7.022 207.45 8.233 207.45 10.634H207.65C207.65 8.16299 206.231 6.822 204.882 6.822V7.022ZM207.45 10.634C207.45 12.5832 206.805 14.1359 205.69 15.2017C204.574 16.268 202.976 16.856 201.054 16.856V17.056C203.017 17.056 204.668 16.455 205.828 15.3463C206.989 14.2371 207.65 12.6288 207.65 10.634H207.45ZM201.054 16.856C198.902 16.856 197.043 16.1105 195.722 14.8183C194.402 13.5263 193.614 11.6823 193.614 9.474H193.414C193.414 11.7317 194.221 13.6287 195.583 14.9612C196.944 16.2935 198.855 17.056 201.054 17.056V16.856ZM193.614 9.474C193.614 4.31248 197.684 0.409996 202.968 0.409996V0.209996C197.58 0.209996 193.414 4.19552 193.414 9.474H193.614ZM202.968 0.409996C206.221 0.409996 209.022 1.53242 211.009 3.5627C212.996 5.59297 214.178 8.53896 214.178 12.2H214.378C214.378 8.49503 213.181 5.49603 211.152 3.4228C209.123 1.34957 206.268 0.209996 202.968 0.209996V0.409996ZM214.178 12.2C214.178 18.7062 210.266 23.368 204.389 25.1543L204.447 25.3457C210.401 23.536 214.378 18.8018 214.378 12.2H214.178ZM204.318 25.25V25.366H204.518V25.25H204.318ZM218.408 25.366H218.308V25.5009L218.437 25.4617L218.408 25.366ZM221.482 42.94L221.582 42.9469L221.589 42.84H221.482V42.94ZM221.308 42.94V42.84H221.215L221.208 42.9329L221.308 42.94ZM218.408 25.25L218.379 25.1543L218.308 25.1759V25.25H218.408ZM218.437 25.4617C224.391 23.6522 228.484 18.8603 228.484 12.2H228.284C228.284 18.7636 224.257 23.4838 218.379 25.2703L218.437 25.4617ZM228.484 12.2C228.484 8.46592 227.273 5.43796 225.222 3.34304C223.171 1.24813 220.288 0.0939975 216.958 0.0939975V0.293998C220.24 0.293998 223.07 1.43086 225.079 3.48295C227.088 5.53504 228.284 8.51007 228.284 12.2H228.484ZM216.958 0.0939975C211.512 0.0939975 207.288 4.13756 207.288 9.474H207.488C207.488 4.25444 211.616 0.293998 216.958 0.293998V0.0939975ZM207.288 9.474C207.288 14.0557 210.641 17.172 215.044 17.172V16.972C210.747 16.972 207.488 13.9403 207.488 9.474H207.288ZM215.044 17.172C217.008 17.172 218.687 16.5562 219.876 15.4262C221.066 14.2957 221.756 12.6587 221.756 10.634H221.556C221.556 12.6113 220.883 14.1933 219.738 15.2813C218.593 16.3698 216.966 16.972 215.044 16.972V17.172ZM221.756 10.634C221.756 9.33878 221.344 7.9102 220.496 6.80316C219.645 5.69332 218.355 4.908 216.61 4.908V5.108C218.287 5.108 219.52 5.85968 220.337 6.92484C221.156 7.9928 221.556 9.37722 221.556 10.634H221.756ZM216.61 4.908C215.072 4.908 213.853 5.51592 213.02 6.64518C212.191 7.77039 211.754 9.40361 211.754 11.446H211.954C211.954 9.42839 212.387 7.8426 213.181 6.76382C213.973 5.68908 215.132 5.108 216.61 5.108V4.908ZM211.754 11.446V41.142H211.954V11.446H211.754ZM211.754 41.142C211.754 43.1831 212.162 44.816 212.961 45.9414C213.765 47.0717 214.956 47.68 216.494 47.68V47.48C215.016 47.48 213.887 46.8993 213.124 45.8256C212.358 44.747 211.954 43.1609 211.954 41.142H211.754ZM216.494 47.68C218.238 47.68 219.482 46.925 220.304 45.9554C221.123 44.9888 221.522 43.8084 221.582 42.9469L221.382 42.9331C221.326 43.7536 220.942 44.8932 220.151 45.8261C219.364 46.756 218.172 47.48 216.494 47.48V47.68ZM221.482 42.84H221.308V43.04H221.482V42.84ZM221.208 42.9329C221.095 44.5141 219.97 45.566 218.756 45.566V45.766C220.093 45.766 221.289 44.6139 221.408 42.9471L221.208 42.9329ZM218.756 45.566C218.111 45.566 217.514 45.3557 217.079 44.9277C216.645 44.5004 216.362 43.8465 216.362 42.94H216.162C216.162 43.8895 216.459 44.5986 216.939 45.0703C217.417 45.5413 218.067 45.766 218.756 45.766V45.566ZM216.362 42.94V9.648H216.162V42.94H216.362ZM216.362 9.648C216.362 8.74444 216.672 8.09076 217.135 7.66239C217.599 7.23261 218.226 7.022 218.872 7.022V6.822C218.184 6.822 217.506 7.04638 216.999 7.5156C216.49 7.98623 216.162 8.69555 216.162 9.648H216.362ZM218.872 7.022C220.075 7.022 221.44 8.233 221.44 10.634H221.64C221.64 8.16299 220.221 6.822 218.872 6.822V7.022ZM221.44 10.634C221.44 12.5832 220.796 14.1359 219.68 15.2017C218.564 16.268 216.967 16.856 215.044 16.856V17.056C217.007 17.056 218.658 16.455 219.818 15.3463C220.979 14.2371 221.64 12.6288 221.64 10.634H221.44ZM215.044 16.856C212.892 16.856 211.033 16.1105 209.713 14.8183C208.392 13.5263 207.604 11.6823 207.604 9.474H207.404C207.404 11.7317 208.211 13.6287 209.573 14.9612C210.935 16.2935 212.845 17.056 215.044 17.056V16.856ZM207.604 9.474C207.604 4.31248 211.674 0.409996 216.958 0.409996V0.209996C211.57 0.209996 207.404 4.19552 207.404 9.474H207.604ZM216.958 0.409996C220.211 0.409996 223.012 1.53242 224.999 3.5627C226.986 5.59297 228.168 8.53896 228.168 12.2H228.368C228.368 8.49503 227.171 5.49603 225.142 3.4228C223.113 1.34957 220.259 0.209996 216.958 0.209996V0.409996ZM228.168 12.2C228.168 18.7062 224.257 23.368 218.379 25.1543L218.437 25.3457C224.391 23.536 228.368 18.8018 228.368 12.2H228.168ZM218.308 25.25V25.366H218.508V25.25H218.308ZM226.598 17.42H226.698V17.3397L226.62 17.3223L226.598 17.42ZM226.598 46.826V46.926H226.698V46.826H226.598ZM222.944 46.826V46.726H222.844V46.826H222.944ZM222.944 47H222.844V47.1H222.944V47ZM234.66 47V47.1H234.76V47H234.66ZM234.66 46.826H234.76V46.726H234.66V46.826ZM231.064 46.826H230.964V46.926H231.064V46.826ZM231.064 17.594H231.164V17.494H231.064V17.594ZM229.382 17.494C226.673 17.494 224.435 16.7877 222.877 15.5155C221.321 14.2452 220.434 12.4038 220.434 10.112H220.234C220.234 12.4602 221.145 14.3598 222.75 15.6705C224.353 16.9793 226.64 17.694 229.382 17.694V17.494ZM220.434 10.112C220.434 6.56286 222.949 3.542 226.714 3.542V3.342C222.823 3.342 220.234 6.46914 220.234 10.112H220.434ZM226.714 3.542C229.865 3.542 231.08 5.484 231.08 6.342H231.28C231.28 5.344 229.943 3.342 226.714 3.342V3.542ZM231.08 6.342C231.08 6.40627 231.059 6.45207 231.03 6.48154C231 6.51101 230.954 6.532 230.89 6.532V6.732C231 6.732 231.099 6.69499 231.171 6.62296C231.243 6.55093 231.28 6.45172 231.28 6.342H231.08ZM230.89 6.532C230.885 6.532 230.871 6.53066 230.842 6.52591C230.816 6.52145 230.783 6.51495 230.742 6.50679C230.663 6.49065 230.558 6.46859 230.437 6.44661C230.195 6.40261 229.884 6.358 229.556 6.358V6.558C229.867 6.558 230.165 6.60038 230.401 6.64338C230.519 6.6649 230.621 6.68634 230.703 6.70283C230.743 6.71099 230.779 6.71807 230.809 6.72313C230.837 6.7279 230.867 6.732 230.89 6.732V6.532ZM229.556 6.358C228.809 6.358 228.074 6.61191 227.524 7.10882C226.973 7.60715 226.614 8.34505 226.614 9.3H226.814C226.814 8.39895 227.151 7.71585 227.659 7.25717C228.167 6.79709 228.853 6.558 229.556 6.558V6.358ZM226.614 9.3C226.614 11.0979 227.938 12.3 229.614 12.3V12.1C228.043 12.1 226.814 10.9821 226.814 9.3H226.614ZM229.614 12.3C230.511 12.3 231.292 11.9557 231.848 11.3544C232.404 10.7535 232.73 9.90173 232.73 8.894H232.53C232.53 9.85827 232.219 10.6595 231.701 11.2186C231.185 11.7773 230.458 12.1 229.614 12.1V12.3ZM232.73 8.894C232.73 7.45188 232.259 6.03406 231.268 4.97587C230.275 3.91626 228.768 3.226 226.714 3.226V3.426C228.72 3.426 230.172 4.09874 231.122 5.11263C232.073 6.12794 232.53 7.49412 232.53 8.894H232.73ZM226.714 3.226C222.765 3.226 220.118 6.41098 220.118 10.112H220.318C220.318 6.50501 222.891 3.426 226.714 3.426V3.226ZM220.118 10.112C220.118 12.0772 220.735 13.7111 221.855 14.9637C222.974 16.2152 224.589 17.0792 226.577 17.5176L226.62 17.3223C224.663 16.8908 223.089 16.0438 222.004 14.8303C220.92 13.6179 220.318 12.0328 220.318 10.112H220.118ZM226.498 17.42V46.826H226.698V17.42H226.498ZM226.598 46.726H222.944V46.926H226.598V46.726ZM222.844 46.826V47H223.044V46.826H222.844ZM222.944 47.1H234.66V46.9H222.944V47.1ZM234.76 47V46.826H234.56V47H234.76ZM234.66 46.726H231.064V46.926H234.66V46.726ZM231.164 46.826V17.594H230.964V46.826H231.164ZM231.064 17.494H229.382V17.694H231.064V17.494ZM258.797 22.35L258.701 22.3785L258.714 22.4231L258.757 22.4417L258.797 22.35ZM244.007 31.108H244.107V31.008H244.007V31.108ZM243.891 31.108V31.008H243.791V31.108H243.891ZM259.377 39.982L259.476 39.9925L259.488 39.882H259.377V39.982ZM259.145 39.982V39.882H259.056L259.046 39.9699L259.145 39.982ZM258.757 22.4417C260.976 23.4091 262.641 25.8627 262.641 29.31H262.841C262.841 25.7973 261.141 23.2629 258.837 22.2583L258.757 22.4417ZM262.641 29.31C262.641 35.1073 258.283 38.78 253.055 38.78V38.98C258.382 38.98 262.841 35.2287 262.841 29.31H262.641ZM253.055 38.78C247.876 38.78 244.107 35.3901 244.107 31.108H243.907C243.907 35.5259 247.793 38.98 253.055 38.98V38.78ZM244.007 31.008H243.891V31.208H244.007V31.008ZM243.791 31.108C243.791 35.6422 247.736 39.096 253.055 39.096V38.896C247.818 38.896 243.991 35.5058 243.991 31.108H243.791ZM253.055 39.096C258.44 39.096 262.957 35.2867 262.957 29.31H262.757C262.757 35.1653 258.341 38.896 253.055 38.896V39.096ZM262.957 29.31C262.957 24.507 259.846 21.554 256.245 21.554V21.754C259.72 21.754 262.757 24.601 262.757 29.31H262.957ZM256.245 21.554C255.384 21.554 254.59 21.8213 254.01 22.3408C253.429 22.8616 253.071 23.629 253.071 24.612H253.271C253.271 23.681 253.608 22.9694 254.144 22.4897C254.681 22.0087 255.424 21.754 256.245 21.754V21.554ZM253.071 24.612C253.071 26.2912 254.334 27.67 256.245 27.67V27.47C254.444 27.47 253.271 26.1808 253.271 24.612H253.071ZM256.245 27.67C257.995 27.67 259.303 26.2196 259.303 24.09H259.103C259.103 26.1364 257.859 27.47 256.245 27.47V27.67ZM259.303 24.09C259.303 20.5456 256.174 16.74 250.097 16.74V16.94C256.083 16.94 259.103 20.6744 259.103 24.09H259.303ZM250.097 16.74C242.257 16.74 236.309 23.8162 236.309 32.326H236.509C236.509 23.8998 242.393 16.94 250.097 16.94V16.74ZM236.309 32.326C236.309 40.8321 241.732 47.68 249.517 47.68V47.48C241.874 47.48 236.509 40.7559 236.509 32.326H236.309ZM249.517 47.68C252.464 47.68 254.836 46.8774 256.532 45.5119C258.229 44.1458 259.242 42.2214 259.476 39.9925L259.277 39.9715C259.048 42.1506 258.06 44.0252 256.407 45.3561C254.753 46.6876 252.428 47.48 249.517 47.48V47.68ZM259.377 39.882H259.145V40.082H259.377V39.882ZM259.046 39.9699C258.53 44.2074 255.155 46.668 251.547 46.668V46.868C255.247 46.868 258.715 44.3406 259.244 39.9941L259.046 39.9699ZM251.547 46.668C248.453 46.668 245.901 45.1225 244.118 42.521C242.335 39.9172 241.323 36.2554 241.323 32.036H241.123C241.123 36.2846 242.141 39.9888 243.953 42.634C245.767 45.2815 248.377 46.868 251.547 46.868V46.668ZM241.323 32.036C241.323 27.4365 242.249 23.7314 243.917 21.1795C245.582 18.6315 247.987 17.23 250.967 17.23V17.03C247.914 17.03 245.448 18.4705 243.749 21.07C242.053 23.6656 241.123 27.4135 241.123 32.036H241.323ZM250.967 17.23C255.216 17.23 257.902 19.6965 258.701 22.3785L258.893 22.3215C258.068 19.5515 255.301 17.03 250.967 17.03V17.23ZM265.624 17.42H265.724V17.3397L265.645 17.3223L265.624 17.42ZM265.624 46.826V46.926H265.724V46.826H265.624ZM261.97 46.826V46.726H261.87V46.826H261.97ZM261.97 47H261.87V47.1H261.97V47ZM273.686 47V47.1H273.786V47H273.686ZM273.686 46.826H273.786V46.726H273.686V46.826ZM270.09 46.826H269.99V46.926H270.09V46.826ZM270.09 17.594H270.19V17.494H270.09V17.594ZM268.408 17.494C265.698 17.494 263.46 16.7877 261.902 15.5155C260.346 14.2452 259.46 12.4038 259.46 10.112H259.26C259.26 12.4602 260.171 14.3598 261.776 15.6705C263.379 16.9793 265.665 17.694 268.408 17.694V17.494ZM259.46 10.112C259.46 6.56286 261.975 3.542 265.74 3.542V3.342C261.848 3.342 259.26 6.46914 259.26 10.112H259.46ZM265.74 3.542C268.89 3.542 270.106 5.484 270.106 6.342H270.306C270.306 5.344 268.969 3.342 265.74 3.342V3.542ZM270.106 6.342C270.106 6.40627 270.085 6.45207 270.055 6.48154C270.026 6.51101 269.98 6.532 269.916 6.532V6.732C270.025 6.732 270.125 6.69499 270.197 6.62296C270.269 6.55093 270.306 6.45172 270.306 6.342H270.106ZM269.916 6.532C269.91 6.532 269.896 6.53066 269.868 6.52591C269.841 6.52145 269.808 6.51495 269.768 6.50679C269.688 6.49065 269.583 6.46859 269.462 6.44661C269.22 6.40261 268.909 6.358 268.582 6.358V6.558C268.892 6.558 269.19 6.60038 269.426 6.64338C269.545 6.6649 269.647 6.68634 269.728 6.70283C269.768 6.71099 269.805 6.71807 269.835 6.72313C269.863 6.7279 269.892 6.732 269.916 6.732V6.532ZM268.582 6.358C267.835 6.358 267.099 6.61191 266.55 7.10882C265.999 7.60715 265.64 8.34505 265.64 9.3H265.84C265.84 8.39895 266.177 7.71585 266.684 7.25717C267.193 6.79709 267.879 6.558 268.582 6.558V6.358ZM265.64 9.3C265.64 11.0979 266.963 12.3 268.64 12.3V12.1C267.068 12.1 265.84 10.9821 265.84 9.3H265.64ZM268.64 12.3C269.536 12.3 270.317 11.9557 270.874 11.3544C271.429 10.7535 271.756 9.90173 271.756 8.894H271.556C271.556 9.85827 271.244 10.6595 270.727 11.2186C270.21 11.7773 269.483 12.1 268.64 12.1V12.3ZM271.756 8.894C271.756 7.45188 271.285 6.03406 270.293 4.97587C269.3 3.91626 267.793 3.226 265.74 3.226V3.426C267.746 3.426 269.197 4.09874 270.147 5.11263C271.099 6.12794 271.556 7.49412 271.556 8.894H271.756ZM265.74 3.226C261.79 3.226 259.144 6.41098 259.144 10.112H259.344C259.344 6.50501 261.917 3.426 265.74 3.426V3.226ZM259.144 10.112C259.144 12.0772 259.76 13.7111 260.88 14.9637C261.999 16.2152 263.615 17.0792 265.602 17.5176L265.645 17.3223C263.689 16.8908 262.114 16.0438 261.029 14.8303C259.945 13.6179 259.344 12.0328 259.344 10.112H259.144ZM265.524 17.42V46.826H265.724V17.42H265.524ZM265.624 46.726H261.97V46.926H265.624V46.726ZM261.87 46.826V47H262.07V46.826H261.87ZM261.97 47.1H273.686V46.9H261.97V47.1ZM273.786 47V46.826H273.586V47H273.786ZM273.686 46.726H270.09V46.926H273.686V46.726ZM270.19 46.826V17.594H269.99V46.826H270.19ZM270.09 17.494H268.408V17.694H270.09V17.494ZM293.387 27.338H293.487V26.9814L293.302 27.286L293.387 27.338ZM293.445 42.012L293.545 42.0044L293.354 41.9706L293.445 42.012ZM303.189 42.94L303.289 42.9469L303.296 42.84H303.189V42.94ZM303.015 42.94V42.84H302.925L302.916 42.9293L303.015 42.94ZM276.625 14.23L276.532 14.1929L276.477 14.33H276.625V14.23ZM276.741 14.23V14.33H276.809L276.834 14.267L276.741 14.23ZM293.287 40.04C293.287 43.1149 290.84 45.856 287.007 45.856V46.056C290.946 46.056 293.487 43.2291 293.487 40.04H293.287ZM287.007 45.856C285.318 45.856 283.91 45.2983 282.923 44.312C281.937 43.3258 281.365 41.9026 281.365 40.156H281.165C281.165 41.9474 281.753 43.4242 282.782 44.4535C283.811 45.4827 285.274 46.056 287.007 46.056V45.856ZM281.365 40.156C281.365 38.1168 281.914 36.6413 282.782 35.4892C283.653 34.3346 284.849 33.4981 286.158 32.7462C286.812 32.3703 287.491 32.0171 288.171 31.6553C288.85 31.294 289.528 30.9247 290.176 30.5185C291.471 29.706 292.649 28.7426 293.472 27.39L293.302 27.286C292.501 28.6014 291.352 29.5448 290.07 30.349C289.428 30.7512 288.756 31.1177 288.077 31.4787C287.4 31.8392 286.716 32.1947 286.058 32.5728C284.742 33.3289 283.517 34.1817 282.622 35.3688C281.726 36.5585 281.165 38.0772 281.165 40.156H281.365ZM293.287 27.338V40.04H293.487V27.338H293.287ZM304.307 21.886C304.307 26.9659 302.561 30.8685 299.85 33.5013C297.137 36.1348 293.451 37.504 289.559 37.504V37.704C293.497 37.704 297.235 36.3182 299.989 33.6447C302.744 30.9705 304.507 27.0141 304.507 21.886H304.307ZM289.559 37.504C285.895 37.504 282.905 36.4367 280.832 34.5645C278.76 32.6932 277.595 30.0098 277.595 26.758H277.395C277.395 30.0602 278.579 32.7998 280.698 34.713C282.815 36.6253 285.857 37.704 289.559 37.704V37.504ZM277.595 26.758C277.595 21.1914 281.78 17.752 286.427 17.752V17.552C281.678 17.552 277.395 21.0726 277.395 26.758H277.595ZM286.427 17.752C288.76 17.752 290.531 18.3425 291.718 19.4014C292.903 20.4588 293.519 21.9952 293.519 23.916H293.719C293.719 21.9508 293.088 20.3552 291.851 19.2521C290.617 18.1505 288.792 17.552 286.427 17.552V17.752ZM293.519 23.916C293.519 26.6685 292.468 28.3866 290.894 29.5941C289.311 30.8079 287.197 31.5083 285.062 32.2092C282.935 32.9074 280.786 33.6062 279.171 34.8226C277.548 36.0454 276.467 37.7892 276.467 40.562H276.667C276.667 37.8537 277.717 36.1684 279.292 34.9823C280.874 33.7899 282.988 33.1003 285.124 32.3993C287.252 31.7009 289.401 30.9912 291.016 29.7528C292.638 28.5079 293.719 26.7315 293.719 23.916H293.519ZM276.467 40.562C276.467 42.8536 277.394 44.6363 278.845 45.8444C280.294 47.0508 282.261 47.68 284.339 47.68V47.48C282.299 47.48 280.38 46.8622 278.973 45.6906C277.567 44.5207 276.667 42.7944 276.667 40.562H276.467ZM284.339 47.68C289.023 47.68 292.362 44.6362 293.536 42.0534L293.354 41.9706C292.208 44.4918 288.935 47.48 284.339 47.48V47.68ZM293.345 42.0196C293.491 43.9434 293.958 45.3607 294.784 46.2976C295.612 47.2383 296.789 47.68 298.317 47.68V47.48C296.829 47.48 295.715 47.0517 294.934 46.1654C294.15 45.2753 293.689 43.9086 293.545 42.0044L293.345 42.0196ZM298.317 47.68C300.032 47.68 301.249 46.9243 302.048 45.9544C302.845 44.9876 303.229 43.8074 303.289 42.9469L303.089 42.9331C303.033 43.7546 302.663 44.8944 301.894 45.8271C301.128 46.7567 299.966 47.48 298.317 47.48V47.68ZM303.189 42.84H303.015V43.04H303.189V42.84ZM302.916 42.9293C302.746 44.5123 301.679 45.566 300.289 45.566V45.766C301.799 45.766 302.936 44.6157 303.114 42.9507L302.916 42.9293ZM300.289 45.566C299.644 45.566 299.062 45.3559 298.642 44.9289C298.222 44.5021 297.953 43.8479 297.953 42.94H297.753C297.753 43.8881 298.035 44.5969 298.5 45.0691C298.964 45.5411 299.6 45.766 300.289 45.766V45.566ZM297.953 42.94V27.512H297.753V42.94H297.953ZM297.953 27.512C297.953 24.1338 297.152 21.4238 295.492 19.5575C293.829 17.6892 291.319 16.682 287.935 16.682V16.882C291.279 16.882 293.728 17.8758 295.342 19.6905C296.959 21.5072 297.753 24.1622 297.753 27.512H297.953ZM287.935 16.682C281.853 16.682 277.279 21.0136 277.279 26.758H277.479C277.479 21.1344 281.953 16.882 287.935 16.882V16.682ZM277.279 26.758C277.279 30.0893 278.478 32.8578 280.618 34.7927C282.757 36.7267 285.828 37.82 289.559 37.82V37.62C285.866 37.62 282.847 36.5383 280.752 34.6443C278.658 32.7512 277.479 30.0387 277.479 26.758H277.279ZM289.559 37.82C293.526 37.82 297.293 36.4196 300.069 33.7245C302.845 31.0285 304.623 27.0432 304.623 21.886H304.423C304.423 26.9948 302.663 30.9265 299.929 33.581C297.195 36.2364 293.48 37.62 289.559 37.62V37.82ZM304.623 21.886C304.623 17.4237 303.004 13.7427 300.3 11.1777C297.597 8.61323 293.815 7.17 289.501 7.17V7.37C293.771 7.37 297.5 8.79776 300.162 11.3228C302.823 13.8473 304.423 17.4743 304.423 21.886H304.623ZM289.501 7.17C284.43 7.17 281.187 8.91966 279.212 10.6753C278.225 11.5523 277.556 12.4297 277.134 13.0885C276.922 13.4179 276.772 13.6929 276.675 13.886C276.626 13.9825 276.591 14.0586 276.568 14.1109C276.556 14.1371 276.547 14.1572 276.541 14.171C276.538 14.1779 276.536 14.1832 276.535 14.1869C276.534 14.1887 276.533 14.1901 276.533 14.1911C276.533 14.1916 276.533 14.192 276.532 14.1923C276.532 14.1925 276.532 14.1926 276.532 14.1927C276.532 14.1928 276.532 14.1929 276.625 14.23C276.718 14.2671 276.718 14.2672 276.718 14.2672C276.718 14.2671 276.718 14.2671 276.718 14.267C276.718 14.2669 276.718 14.2667 276.718 14.2663C276.718 14.2656 276.719 14.2645 276.72 14.263C276.721 14.26 276.723 14.2553 276.725 14.249C276.731 14.2365 276.739 14.2176 276.75 14.1927C276.772 14.1431 276.806 14.0697 276.854 13.9759C276.948 13.7884 277.095 13.5196 277.302 13.1965C277.717 12.5503 278.374 11.6877 279.345 10.8247C281.285 9.10033 284.481 7.37 289.501 7.37V7.17ZM276.625 14.33H276.741V14.13H276.625V14.33ZM276.741 14.23C276.834 14.267 276.834 14.267 276.834 14.267C276.834 14.267 276.834 14.267 276.834 14.2669C276.834 14.2668 276.834 14.2666 276.834 14.2662C276.835 14.2655 276.835 14.2645 276.836 14.263C276.837 14.26 276.839 14.2554 276.841 14.2492C276.846 14.2369 276.854 14.2184 276.865 14.194C276.887 14.1452 276.921 14.073 276.967 13.9809C277.06 13.7965 277.204 13.5323 277.408 13.2147C277.816 12.5795 278.465 11.7313 279.424 10.8829C281.343 9.18755 284.509 7.486 289.501 7.486V7.286C284.459 7.286 281.245 9.00645 279.292 10.7331C278.316 11.5957 277.656 12.4585 277.24 13.1066C277.031 13.4306 276.884 13.701 276.788 13.891C276.741 13.986 276.706 14.0609 276.683 14.1123C276.671 14.138 276.663 14.1579 276.657 14.1715C276.654 14.1783 276.652 14.1835 276.651 14.1871C276.65 14.1889 276.649 14.1903 276.649 14.1913C276.649 14.1918 276.648 14.1922 276.648 14.1925C276.648 14.1926 276.648 14.1927 276.648 14.1928C276.648 14.1929 276.648 14.193 276.741 14.23ZM289.501 7.486C293.742 7.486 297.443 8.89931 300.082 11.4026C302.722 13.9052 304.307 17.5033 304.307 21.886H304.507C304.507 17.4527 302.902 13.8008 300.22 11.2574C297.539 8.71468 293.786 7.286 289.501 7.286V7.486Z" fill="#3D3D3D"/>
</svg>
